<svg id="Layer_1" data-name="Layer 1" xmlns="http://www.w3.org/2000/svg" viewBox="0 0 270.33 303.59"><defs><style>.cls-1{fill:#ffeed6;}.cls-2{fill:#fff5e9;}.cls-3{fill:#ffc192;}.cls-4{fill:#ffdebd;}.cls-5{fill:#93665a;}.cls-6,.cls-9{fill:none;stroke:#a57f72;}.cls-17,.cls-6,.cls-9{stroke-miterlimit:10;}.cls-6{stroke-width:0.85px;}.cls-7{fill:#a57f72;}.cls-8{fill:#ff99d1;}.cls-9{stroke-width:0.77px;}.cls-10{fill:#ef8d6f;}.cls-11{fill:#ffb391;}.cls-12{fill:#ff7260;}.cls-13{fill:#ffcea9;}.cls-14{fill:#ffc392;}.cls-15{fill:#f49b78;}.cls-16{fill:#ffd5b3;}.cls-17{fill:#d7f9ff;stroke:#00aeef;opacity:0.35;}.cls-18{fill:#fff;}</style></defs><title>catwithhat</title><path class="cls-1" d="M195.73,179.45c-4-9.68-21.65-11.66-22.68-24.15s9.61-22.64,9.61-22.64h0c-1.1-7.57-4.18-11-4.18-11l3.14,2.11-4.32-14.06c-13.1,14.09-23.83,3.92-23.83,3.92-3-2.39-5.67-8.94-6.93-13-2.55-8.17-3.41-10.74-3.41-10.74-1.67-3.52-4.22-3.09-4.22-3.09-9.77.76-2.81,21.5-18.41,29.51a16.61,16.61,0,0,1-7.56,1.93h0a14.05,14.05,0,0,0,2.27,14.53c5.86,6.92-1.61,15.48-7.53,13.93-2.79-.73-4.44-1-5.87-1.87a16.36,16.36,0,0,1-1,6.19c-1.73,4.59-4.24,10-5.76,13.8a58.22,58.22,0,0,0-3,10.78,56.75,56.75,0,0,0-.68,8.87c.28,28.11,10.75,30.6,18.68,37.47,8.83,7.65,50.69,28,77-1.14C199.2,207.39,199.31,192.19,195.73,179.45Z"/><path class="cls-2" d="M173.05,155.3c1,12.49,18.66,14.47,22.68,24.15-4.43-15.79-14.55-27.79-14.55-27.79a48.08,48.08,0,0,0,1.48-19h0S172,142.81,173.05,155.3Z"/><path class="cls-3" d="M153,107.14c-2.84-14.55-15-25.92-15-25.92-10.88-1.32-5.29,29-17.43,35.07,15.6-8,10.37-28.18,17.9-29.4,0,0,2.46-.48,3.73,3,0,0,.83,1.45,4.41,10.74,1.52,3.94,3.89,10.58,6.93,13,0,0,10.73,10.17,23.83-3.92C164.2,123.75,153,107.14,153,107.14Z"/><path class="cls-3" d="M174.37,81.71S171,64.57,165.68,61s-10.62,11.59-10.62,11.59A67.78,67.78,0,0,0,122.7,73s-6-10.38-9.65-11.83-6,3.86-8.45,10.62S100.73,95,100.73,95c-.27,2.77-3.12,8.36-3.12,8.36L99.84,102s-.34,5.81-.34,9.79c0,0,5.31,6.31,13.33,6.35a16.73,16.73,0,0,0,7.67-1.87c12.14-6.07,6.55-36.39,17.43-35.07,0,0,12.2,11.37,15,25.92,0,0,11.23,16.61,24.33,2.52C176.54,92.13,174.37,81.71,174.37,81.71Z"/><path class="cls-4" d="M184.93,221.39s8.94-4.67,11.16,1.61,3.69,7.58-5.17,10.62-17.72,0-17.72,0l-9-6.27Z"/><ellipse class="cls-5" cx="126.31" cy="101.53" rx="1.72" ry="2.41"/><path class="cls-6" d="M139,107.14a7.61,7.61,0,0,0,.24,3.08c.61,1.59,3.34,2.36,4.9,0"/><path class="cls-6" d="M138.78,107.14a7.53,7.53,0,0,1-.23,3.08c-.61,1.59-3.35,2.36-4.91,0"/><ellipse class="cls-5" cx="151.43" cy="101.43" rx="1.72" ry="2.41"/><path class="cls-7" d="M138.93,108.15s-2.67-1-2.65-2.48c0,0,.11-.73,1.27-.82a25.57,25.57,0,0,1,3.06,0q1.11.14,1,1.14C141.56,106.77,140.05,107.85,138.93,108.15Z"/><ellipse class="cls-8" cx="152.15" cy="108.28" rx="4.2" ry="1.14"/><ellipse class="cls-8" cx="125.7" cy="108.28" rx="4.2" ry="1.14"/><path class="cls-9" d="M130,124.14s4.41,5.39,10.49,4.4,8.66-4.4,8.66-4.4"/><path class="cls-10" d="M118.87,74.15s-3.15-7.8-6.34-9.52-6.06,12.7-6.35,16.16C106.18,80.79,112.53,75.63,118.87,74.15Z"/><path class="cls-10" d="M157.69,73.66s3.38-9.24,6.94-9.18,5.17,10.61,5.17,10.61l.8,5.25S163.39,74.73,157.69,73.66Z"/><path class="cls-11" d="M112.83,118.16l.11.06a16.61,16.61,0,0,0,7.56-1.93A16.73,16.73,0,0,1,112.83,118.16Z"/><path class="cls-2" d="M115.22,132.75A14.05,14.05,0,0,1,113,118.22h0c-8.06,0-13.44-6.41-13.44-6.41A18.43,18.43,0,0,1,98,119l2.41-1-5.68,10.51,5.6-2.77c-2.4,5.27,1.42,11.93,1.54,19.09,1.43.87,3.08,1.14,5.87,1.87C113.61,148.23,121.08,139.67,115.22,132.75Z"/><path class="cls-11" d="M112.94,118.22l-.11-.06c-8,0-13.33-6.35-13.33-6.35S104.88,118.24,112.94,118.22Z"/><path class="cls-12" d="M101.73,143.14s39.8,33.42,81.12-3.09a47.21,47.21,0,0,1-1.67,11.61s-12.84,12.77-38.9,14.16C114.66,167.3,100.8,151,100.8,151A17.43,17.43,0,0,0,101.73,143.14Z"/><path class="cls-1" d="M150.89,146.14s4.12,9-3.12,13.51a12.44,12.44,0,0,0-.33-3.87s-1.87,5.14-4.39,6.76l-2.53,1.62s.57-5.66-.59-7a5.93,5.93,0,0,0-1.69,4.35l0,2.92s-3.19-3.33-4-6.79c0,0-2.44,1.29-2.35,3.16,0,0-2.76-3.46-2.5-7S150.89,146.14,150.89,146.14Z"/><path class="cls-4" d="M115.26,192.31s24.53,23.51,59.17-14.64c11.14-12.27,26.49,6.25,21.51,28-3.72,16.24-27.09,30-47,30.33s-23.2-9.6-23.2-9.6Z"/><path class="cls-13" d="M175.05,85.64s-.54-.87-1.14,2.94c-.36,2.29,1.57,8.52-1.5,10.44-4,2.5-4.93,7.4-.73,9.82,3,1.73,5.47-1.7,5.47-1.7A139,139,0,0,0,175.05,85.64Z"/><path class="cls-14" d="M134.84,223.51s-5.94,2.07-.84,4.36c17.88,8,54.87-5.71,55.62-10.44A50.88,50.88,0,0,1,146.94,236C118.76,234.29,134.84,223.51,134.84,223.51Z"/><path class="cls-1" d="M174.54,173.75s-9.28,49.73-5.79,55.66,9,5.05,6.23,10.9-8.2,9.26-13.82,6.7-8.07-6.31-8.33-11.85-1.4-51-1.4-51"/><path class="cls-1" d="M112.53,182.78c5.1,10.52,6.67,49,6.67,49-3.37,1.9-10.76,4.1-3.67,11,6.39,6.21,17.11-.5,17.11-.5,5.09-5.11,0-46.94,0-46.94"/><path class="cls-14" d="M122,202a14.22,14.22,0,0,0-9.43-4.43c2.57,6.24-8.07,9.6-17.2,10.35s-3.46-19.81-3.46-19.81l.56.25c-.7-3.17-1.1-5.68-1.1-5.68s-26.25,26.26-18.64,47c0,0,4.92,13.76,28.88,11C124,238.13,127,222.85,127,218.39S125.58,205.6,122,202Z"/><path class="cls-15" d="M91.41,210.39c14.2,2.64,23.69-6.58,21.12-12.82-2.54.49-2.73,1.39-5.48,2.93,0,0-9.27,5.47-12.37,1.5-1.76-2.26-1.32-9.44-2.25-13.64l-.56-.25S80.72,208.41,91.41,210.39Z"/><path class="cls-4" d="M96.43,161.37s-2,18.38.8,24c5,10.35-2.55,16.63-2.55,16.63S85.9,187,96.43,161.37Z"/><path class="cls-16" d="M196.15,189.92s-13.67,3-16.3,12.08-11.76,17.72-11.76,17.72v8.18s16.17-2.85,20.5-9c0,0,6-8,7.35-13.25S196.86,196.53,196.15,189.92Z"/><path class="cls-16" d="M188,175.77s-12.81.36-15.43,9.38l1.14-6.68s3.25-4.41,7.57-4.67A9.49,9.49,0,0,1,188,175.77Z"/><path class="cls-16" d="M134.9,200.11s7.88,7,0,29.13l-1.8-29.84Z"/><path class="cls-2" d="M102.63,156.06s-4.22,14.6,3,17.8-.11,9.08-4.67,1.78S102.63,156.06,102.63,156.06Z"/><path class="cls-4" d="M83.69,233.86s3.06-1-.87-3.72a11.79,11.79,0,0,1-3.76-3.06c-2.42-3.69-4.07-9.45-3.6-11.87,0,0-2.78,10.58,4.57,17.19A4.76,4.76,0,0,0,83.69,233.86Z"/><circle class="cls-17" cx="140.84" cy="95.6" r="61.45"/><path class="cls-18" d="M177.59,56s-3.5-.44-2.6,1.71,2.21.47,6.15,6c2.49,3.5,2.82,7.61,4.74,6.9S184.88,58.57,177.59,56Z"/><circle class="cls-18" cx="189.22" cy="79.01" r="1.53"/></svg>