<svg id="Layer_1" data-name="Layer 1" xmlns="http://www.w3.org/2000/svg" viewBox="0 0 313.57 301"><defs><style>.cls-1{fill:#ade6f7;}.cls-2{fill:#39b54a;}.cls-3{fill:#d4f7ff;}.cls-4{fill:#603913;}.cls-5{fill:#fff;}.cls-6{fill:none;stroke:#603913;stroke-miterlimit:10;stroke-width:2px;}</style></defs><title>Earth</title><circle class="cls-1" cx="156.78" cy="150.49" r="81.96"/><path class="cls-2" d="M196.35,78.69S183.18,93.08,167.54,98.9c-18.38,6.83-14,29.86,0,27.17S195,111,201.44,118.53s-8.07,11.31-2.69,19.92,22.08,6.48,29.61,2.7l9.2-4.62S234.08,99.94,196.35,78.69Z"/><path class="cls-2" d="M75.63,162.05s7.18,17.34,19.49,18.85c9.4,1.15,12.82,18.14.86,24.55C96,205.45,78.91,188.43,75.63,162.05Z"/><path class="cls-2" d="M108.84,84s6.94,14.33-8.3,23.7c-14.56,9-18.16,8-18.16,8S91.22,96,108.84,84Z"/><path class="cls-2" d="M212.91,210.22s-22.58-5.15-28.58-32.69c-5.27-24.21-25.06-11.22-27.26-5.68-2.83,7.16,2.8,19-6.88,25.18s-13,14.07-6.11,18,14,2.72,15.79,8.15-4.29,9.25-4.29,9.25,18.15.82,34.47-7S212.91,210.22,212.91,210.22Z"/><path class="cls-3" d="M120.89,84.65s5.16-3.57,8.6.52-3.05,7.74-3.05,7.74-21,15.15-25.49,25.29c-4.19,9.44-10.93,11.94-12.62,8.52s.91-10.51,4.38-15.76C102.41,96.29,120.89,84.65,120.89,84.65Z"/><ellipse class="cls-3" cx="140.33" cy="79.84" rx="5.48" ry="2.95"/><circle class="cls-4" cx="179.83" cy="143.62" r="7.17"/><circle class="cls-4" cx="123.68" cy="143.62" r="7.17"/><circle class="cls-5" cx="125.7" cy="141.85" r="2.03"/><circle class="cls-5" cx="181.57" cy="141.85" r="2.03"/><path class="cls-6" d="M137.5,165s5.7-3.47,16.62.28"/></svg>