<svg id="Layer_1" data-name="Layer 1" xmlns="http://www.w3.org/2000/svg" viewBox="0 0 652.78 578.83"><defs><style>.cls-1{fill:#1e275f;}.cls-2{fill:#252f6c;}.cls-3{fill:#ffe443;}.cls-4{fill:#ff9100;}.cls-5{fill:#ffafd8;}.cls-6{fill:#febf41;}</style></defs><title>End</title><path class="cls-1" d="M440.7,468.66c-53.18-6.87-142.52-49.32-156.18-45.11s-87.35-18.14-175,15.7a263.64,263.64,0,0,0,421,17C508.33,465.23,476.74,473.31,440.7,468.66Z"/><path class="cls-1" d="M340.4,409.41c87.46,27.25,189.37-3.32,228.64-16.65a262.9,262.9,0,0,0,21-103.35A302.43,302.43,0,0,0,578.83,211c-13.23-1.9-32.71,21.43-66.5,29.76-14.5,3.58-56,27.49-159.6,76.78C269.88,357,109.22,302.42,62.82,289.41c0,55.17,18.72,103.31,39.07,138.31C131.55,417.89,244.41,379.51,340.4,409.41Z"/><path class="cls-2" d="M340.4,407.41c-96-29.85-208.85,10.48-238.51,20.31,3.49,6,24.7,32.37,28.63,38,87.64-33.84,150,7.9,163.7,3.7s70.63,42.34,141.06,42c62.23-.32,107.06-68,107.06-68C558,424.37,564.62,402,574.45,379,574.45,379,468.27,447.18,340.4,407.41Z"/><path class="cls-2" d="M348.3,80.28c46.92-21.09,87.5-21.25,120-13.13A263.69,263.69,0,0,0,152.18,91.62C152.7,92,222.63,136.77,348.3,80.28Z"/><path class="cls-1" d="M210.13,237.85C251,256.6,318.94,268.46,392.43,220c83.06-54.82,139.74-63.1,161.4-64a265,265,0,0,0-85.56-88.8c-32.47-8.12-73-8-120,13.13C222.63,136.77,152.7,92,152.18,91.62A263.93,263.93,0,0,0,75.59,208.24C76.8,208.11,132.64,202.29,210.13,237.85Z"/><path class="cls-2" d="M323.71,348.47c103.6-49.29,174.12-104.09,188.62-107.67,33.79-8.33,56.17-19.3,69.39-17.39-5.9-28.58-13.55-43.09-27.89-67.46-21.66.92-78.34,9.2-161.4,64C318.94,268.46,251,256.6,210.13,237.85,132.64,202.29,76.8,208.11,75.59,208.24a263.31,263.31,0,0,0-12.77,81.17c0,4.83-.25-4.76,0,0C84.65,323.69,240.86,387.9,323.71,348.47Z"/><path class="cls-3" d="M200,237.61s-1,10.36-8.77,11c0,0,7.32,1.16,8.83,11.24,0,0,.17-9.69,8.4-10.84C208.49,249,200.32,246.37,200,237.61Z"/><circle class="cls-3" cx="468.27" cy="401.94" r="4.16"/><circle class="cls-3" cx="121.63" cy="330.32" r="2.08"/><path class="cls-3" d="M429.65,143.36s-1.11,11.84-10,12.56c0,0,8.36,1.33,10.09,12.84,0,0,.18-11.06,9.6-12.39C439.33,156.37,430,153.37,429.65,143.36Z"/><circle class="cls-3" cx="284.83" cy="104.64" r="4.16"/><circle class="cls-3" cx="534.72" cy="250.39" r="1.66"/><path class="cls-3" d="M346.51,458.58s-.93,9.88-8.34,10.48c0,0,7,1.1,8.41,10.7,0,0,.15-9.23,8-10.33C354.57,469.43,346.79,466.93,346.51,458.58Z"/><circle class="cls-3" cx="417.31" cy="283.13" r="2.5"/><circle class="cls-3" cx="176.43" cy="458.58" r="1.66"/><circle class="cls-3" cx="97.73" cy="219.26" r="4.16"/><path class="cls-4" d="M365.94,260.69,156.37,346.1l58.88-4.79-54.4,34.86,57.44-12.87-43.18,38.64,54.81-22.57-38.66,47.38L394.4,287.21S393.34,261,365.94,260.69Z"/><polygon class="cls-5" points="215.25 341.31 360.77 274.43 347.62 268.43 156.37 346.1 215.25 341.31"/><polygon class="cls-6" points="191.26 426.75 229.92 379.37 378.4 285.74 347.8 319.36 191.26 426.75"/><polygon class="cls-4" points="214.42 364.17 357.74 287.21 346.37 306.74 229.92 379.37 175.11 401.94 214.42 364.17"/><path class="cls-3" d="M401.44,196l17.74,36a9.22,9.22,0,0,0,6.92,5l39.68,5.76a9.19,9.19,0,0,1,5.09,15.67l-28.71,28a9.18,9.18,0,0,0-2.65,8.13L446.29,334A9.19,9.19,0,0,1,433,343.7L397.47,325a9.17,9.17,0,0,0-8.55,0L353.43,343.7A9.19,9.19,0,0,1,340.1,334l6.78-39.52a9.2,9.2,0,0,0-2.64-8.13l-28.72-28a9.19,9.19,0,0,1,5.1-15.67l39.67-5.76a9.2,9.2,0,0,0,6.92-5L385,196A9.19,9.19,0,0,1,401.44,196Z"/><path class="cls-6" d="M397,238.52l8.27,16.76a4.28,4.28,0,0,0,3.22,2.34l18.5,2.69a4.29,4.29,0,0,1,2.37,7.31l-13.38,13a4.28,4.28,0,0,0-1.23,3.79L418,302.87a4.29,4.29,0,0,1-6.22,4.52l-16.54-8.7a4.33,4.33,0,0,0-4,0l-16.54,8.7a4.28,4.28,0,0,1-6.21-4.52l3.15-18.42a4.28,4.28,0,0,0-1.23-3.79l-13.38-13a4.29,4.29,0,0,1,2.37-7.31l18.5-2.69a4.28,4.28,0,0,0,3.22-2.34l8.28-16.76A4.28,4.28,0,0,1,397,238.52Z"/></svg>