<svg id="Layer_1" data-name="Layer 1" xmlns="http://www.w3.org/2000/svg" viewBox="0 0 313.57 301"><defs><style>.cls-1{fill:#ffd7bf;}.cls-2{fill:none;}.cls-3{fill:#ecb478;}.cls-4{fill:#e5876f;}.cls-5{fill:#fff0e9;}.cls-6{fill:#603913;}.cls-7{fill:#fff;}</style></defs><title>jupiter</title><path class="cls-1" d="M75,145.42v9.16l124.9,24.85s36.85-11.65,37.71-15.37a41.94,41.94,0,0,0,.85-8Z"/><path class="cls-2" d="M87.29,194h0l-4.13-.51C84.4,193.62,85.79,193.79,87.29,194Z"/><path class="cls-1" d="M87.62,194l-.33,0h0Z"/><path class="cls-1" d="M223.36,198.28c.58-.81,1.15-1.62,1.7-2.44l-3.84.32Z"/><path class="cls-1" d="M222.1,101a81.94,81.94,0,0,0-123.43-8.3C122.89,101.07,172.14,113.73,222.1,101Z"/><path class="cls-1" d="M75.67,162.27a81.67,81.67,0,0,0,7.65,24.59c25.16,5.46,76.89,12.21,147.63-1.45A81.81,81.81,0,0,0,237,167.33C200.05,185.76,107.47,168.87,75.67,162.27Z"/><path class="cls-1" d="M130.52,228.14c23.68-12.92,47.07,1.51,47.23,1.61A82,82,0,0,0,213,210.08L96,205.43A82.1,82.1,0,0,0,130.52,228.14Z"/><path class="cls-1" d="M82.1,116.75q-1,2.16-1.84,4.38c18.65,10.53,73.43,48.65,157.35,42.93.39,0,.72-12.64,1.11-12.66,0-.3,0-.6,0-.9a83.24,83.24,0,0,0-.94-12.41C165.64,145.85,108.49,127.6,82.1,116.75Z"/><path class="cls-3" d="M92.28,100A81.74,81.74,0,0,0,82.1,116.75c26.39,10.85,83.54,29.1,155.71,21.34a81.31,81.31,0,0,0-6.5-21.69C211.09,121.14,155.26,129.69,92.28,100Z"/><path class="cls-4" d="M230.47,114.58A81.54,81.54,0,0,0,222.1,101c-50,12.72-99.21.06-123.43-8.3q-2.79,2.81-5.29,5.86C150.2,115,208.67,115.2,230.47,114.58Z"/><path class="cls-3" d="M74.83,150c0,.18,0,.36,0,.54a83.08,83.08,0,0,0,.85,11.77c31.8,6.6,124.38,23.49,161.34,5.06q.33-1.62.6-3.27C220.16,168.79,173,175.06,74.83,150Z"/><path class="cls-4" d="M80.26,121.13a81.87,81.87,0,0,0-5.41,28.06c108.88,18.89,163.61,8.56,163.61,8.56s.26-3.52.26-6.35,0-3.61,0-3.61C154.78,153.51,98.91,131.66,80.26,121.13Z"/><path class="cls-4" d="M87.62,194l-.33,0c2.56,4.08.33,0,8.66,11.48C167.19,217.59,213,210.08,213,210.08a82.26,82.26,0,0,0,10.32-11.8l1.7-2.44C196.23,198.17,142.53,200.54,87.62,194Z"/><path class="cls-3" d="M83.32,186.86c1.21,2.43,2.54,4.8,4,7.09l.33,0c34.85,3.67,133.6,2.18,133.6,2.18h0l3.84-.32A81.47,81.47,0,0,0,231,185.41C160.21,199.07,108.48,192.32,83.32,186.86Z"/><path class="cls-3" d="M79.73,193l3.43.45C81.91,193.25,80.77,193.11,79.73,193Z"/><path class="cls-3" d="M221.22,196.16h0s-98.75,1.49-133.6-2.18C142.53,200.54,192.39,198.49,221.22,196.16Z"/><path class="cls-3" d="M130.52,228.14a82.2,82.2,0,0,0,47.23,1.61C177.59,229.65,154.2,215.22,130.52,228.14Z"/><path class="cls-4" d="M93.38,98.57c-.38.46-.74.93-1.1,1.4,63,29.72,118.81,21.17,139,16.43-.28-.61-.55-1.22-.84-1.82C208.67,115.2,150.2,115,93.38,98.57Z"/><path class="cls-5" d="M126.29,82.57S100.79,97,94,113.47c-4.3,10.44,1.08,14.71,9,10.42,9.24-5,4.23-13.9,35.82-31.83,6.41-3.63,8.22-9.64,5.14-12.36C140.69,76.81,132.58,78.31,126.29,82.57Z"/><circle class="cls-5" cx="87.62" cy="133.96" r="3.56"/><circle class="cls-6" cx="184.25" cy="151.11" r="7.17"/><circle class="cls-6" cx="128.1" cy="151.11" r="7.17"/><circle class="cls-7" cx="130.13" cy="149.34" r="2.03"/><circle class="cls-7" cx="185.99" cy="149.34" r="2.03"/><path class="cls-6" d="M150,158.85s6.17,6.26,12.34-.23Z"/></svg>