<svg id="Layer_1" data-name="Layer 1" xmlns="http://www.w3.org/2000/svg" viewBox="0 0 313.57 301"><defs><style>.cls-1{fill:#fc3517;}.cls-2{fill:#d4001b;}.cls-3{fill:#603913;}.cls-4{fill:#fff;}.cls-5{fill:#ffb0d9;}.cls-6{fill:#ff6e6e;}</style></defs><title>Mars</title><path class="cls-1" d="M238.75,150.5A81.58,81.58,0,0,0,227.46,109a13.1,13.1,0,0,1-2.09.18A13.37,13.37,0,0,1,213,90.85a82,82,0,1,0-56.18,141.61c.48,0,.95,0,1.43,0a13.23,13.23,0,0,1-1.43-6,13.38,13.38,0,0,1,26.75,0,13.64,13.64,0,0,1-.1,1.57A82,82,0,0,0,238.75,150.5Z"/><path class="cls-2" d="M170.16,213.07a13.38,13.38,0,0,0-13.38,13.37,13.23,13.23,0,0,0,1.43,6A81.88,81.88,0,0,0,183.43,228a13.64,13.64,0,0,0,.1-1.57A13.38,13.38,0,0,0,170.16,213.07Z"/><circle class="cls-2" cx="207.19" cy="152.6" r="8.78"/><circle class="cls-2" cx="115.31" cy="170.56" r="13.37"/><path class="cls-2" d="M225.37,109.19a13.1,13.1,0,0,0,2.09-.18A82.22,82.22,0,0,0,213,90.85a13.37,13.37,0,0,0,12.41,18.34Z"/><circle class="cls-2" cx="180.69" cy="182.78" r="3.95"/><circle class="cls-2" cx="93.93" cy="130.92" r="5.35"/><circle class="cls-2" cx="162.74" cy="108.29" r="19.1"/><circle class="cls-3" cx="184.86" cy="149.59" r="7.17"/><circle class="cls-3" cx="128.71" cy="149.59" r="7.17"/><circle class="cls-4" cx="130.74" cy="147.82" r="2.03"/><circle class="cls-4" cx="186.6" cy="147.82" r="2.03"/><path class="cls-3" d="M152.27,156.76h8.56s1.36,8.33-4.28,8.33S152.27,156.76,152.27,156.76Z"/><path class="cls-5" d="M160.19,162.88a6,6,0,0,0-7.34,0,4.15,4.15,0,0,0,3.7,2.21A4,4,0,0,0,160.19,162.88Z"/><path class="cls-6" d="M129.7,84A6.13,6.13,0,0,1,137,89.23c.26,2.41-1,5.26-6,7.83-20.06,10.29-15.16,18.67-23.79,20.85-5.32,1.35-11.18-7.43-5.75-16.23C106.56,93.41,116.79,86.39,129.7,84Z"/><ellipse class="cls-6" cx="146.19" cy="81.93" rx="3.55" ry="4.09"/></svg>