<svg id="Layer_1" data-name="Layer 1" xmlns="http://www.w3.org/2000/svg" viewBox="0 0 313.57 301"><defs><style>.cls-1{fill:#c99071;}.cls-2{fill:#ddab94;}.cls-3{fill:#a76d55;}.cls-4{fill:#603913;}.cls-5{fill:#fff;}.cls-6{fill:#ffb0d9;}</style></defs><title>Mercury</title><path class="cls-1" d="M236.69,132.29a82,82,0,1,0-121,89.1h0a47.41,47.41,0,0,0,6.8,3.53c1.19.55,2.39,1.08,3.62,1.58l0-.16c10.31,3.83,22.85,6.12,30.73,6.12a81.91,81.91,0,0,0,79.91-100.17Z"/><path class="cls-2" d="M169.84,83.33c-4.33.83-6.1,4-4.72,7.63,1,2.53,2.58,2.68,5.1,3.4s5.18,1,7.49,2.26A26.6,26.6,0,0,1,188,107c2.18,4.19,5,9.07,9.53,9.53,5.47.55,9.15-1.53,9.67-6.83.34-3.5-1.47-10.45-4.16-13.74-9.2-11.31-19.51-13.5-33.15-12.65"/><ellipse class="cls-3" cx="172.05" cy="147.72" rx="15.41" ry="12.09"/><ellipse class="cls-3" cx="104.45" cy="110.58" rx="8.41" ry="10.83"/><path class="cls-3" d="M89.44,196.15s10.78,17.19,16.1,14.29,6.1-18.43,1.13-21.57S84.62,189.39,89.44,196.15Z"/><circle class="cls-2" cx="220.28" cy="132.22" r="5"/><circle class="cls-3" cx="151.03" cy="195.7" r="4.71"/><ellipse class="cls-3" cx="214.48" cy="187.06" rx="7.29" ry="12.24"/><ellipse class="cls-3" cx="103.76" cy="154.13" rx="11.88" ry="4.81"/><circle class="cls-4" cx="184.71" cy="140.06" r="7.17"/><circle class="cls-4" cx="128.56" cy="140.06" r="7.17"/><circle class="cls-5" cx="130.59" cy="138.29" r="2.03"/><circle class="cls-5" cx="186.45" cy="138.29" r="2.03"/><ellipse class="cls-4" cx="156.63" cy="153.1" rx="3.4" ry="5"/><path class="cls-6" d="M153.86,156s3-2.66,5.55,0a3,3,0,0,1-2.78,2.12C154.81,158.1,153.86,156,153.86,156Z"/></svg>