<svg id="Layer_1" data-name="Layer 1" xmlns="http://www.w3.org/2000/svg" viewBox="0 0 313.57 301"><defs><style>.cls-1{fill:#51a3e5;}.cls-2{fill:#4b95e0;}.cls-3{fill:#4185d6;}.cls-4{fill:#64bdff;}.cls-5{fill:#97d7ff;}.cls-6{fill:#603913;}.cls-7{fill:#fff;}.cls-8{fill:none;stroke:#603913;stroke-miterlimit:10;stroke-width:2px;}</style></defs><title>Neptune</title><path class="cls-1" d="M84.06,188.29c99.39-38.08,143.2.57,143.2.57s.73,0,2,0a81.66,81.66,0,0,0,8.4-51.9C186.19,85.85,80.42,121.61,80,121.74a82,82,0,0,0,4,66.55Z"/><path class="cls-2" d="M106,214.79c56.13-20,100.39,1,100.39,1a82.25,82.25,0,0,0,22.84-26.88h0s-45.76-38.66-145.15-.58A82.33,82.33,0,0,0,106,214.79Z"/><path class="cls-1" d="M106,214.79a81.9,81.9,0,0,0,100.39,1S162.11,194.78,106,214.79Z"/><rect class="cls-3" x="120.69" y="132" width="42.73" height="10.82" rx="5.41" ry="5.41" transform="translate(284.11 274.82) rotate(-180)"/><rect class="cls-3" x="195.13" y="153.23" width="20.27" height="6.29" rx="3.14" ry="3.14" transform="translate(410.54 312.75) rotate(-180)"/><rect class="cls-4" x="123.54" y="189.04" width="21.29" height="8.11" rx="4.05" ry="4.05" transform="translate(268.37 386.19) rotate(180)"/><path class="cls-2" d="M237.61,137A81.65,81.65,0,0,0,220,98.33a5.52,5.52,0,0,1-.71,0H194.6a5.41,5.41,0,0,1,0-10.82h14.65A81.94,81.94,0,0,0,80,121.74C80.42,121.61,186.19,85.85,237.61,137Z"/><path class="cls-4" d="M189.19,93a5.43,5.43,0,0,0,5.41,5.41h24.67a5.52,5.52,0,0,0,.71,0,82.1,82.1,0,0,0-10.73-10.77H194.6A5.43,5.43,0,0,0,189.19,93Z"/><path class="cls-5" d="M140.32,80.4S122.32,81,108.73,95s-2.81,21.1,3.54,17.07,6.89-18.54,36.82-24.28C158.14,86,153.36,78.62,140.32,80.4Z"/><ellipse class="cls-5" cx="96.22" cy="123.02" rx="3.08" ry="3.92" transform="translate(-31.02 213.59) rotate(-87.41)"/><circle class="cls-6" cx="181.82" cy="146.19" r="7.17"/><circle class="cls-6" cx="125.67" cy="146.19" r="7.17"/><circle class="cls-7" cx="127.7" cy="144.42" r="2.03"/><circle class="cls-7" cx="183.57" cy="144.42" r="2.03"/><path class="cls-8" d="M143.45,154.22s8,8.88,22.84.31"/></svg>