<svg id="Layer_1" data-name="Layer 1" xmlns="http://www.w3.org/2000/svg" viewBox="0 0 652.78 578.83"><defs><style>.cls-1{fill:#1e275f;}.cls-2{fill:#252f6c;}.cls-3{fill:red;}.cls-4{fill:#ff9100;}.cls-5{fill:#febf41;}.cls-6{fill:#b2a5e8;}.cls-7{fill:#c5bdef;}.cls-8{fill:#fff;}.cls-9{fill:#ebf5fc;}.cls-10{fill:#8d80d8;}.cls-11{fill:#ffe443;}</style></defs><title>Rocketbackground</title><path class="cls-1" d="M440.7,468.66c-53.18-6.87-142.52-49.32-156.18-45.11s-87.35-18.14-175,15.7a263.64,263.64,0,0,0,421,17C508.33,465.23,476.74,473.31,440.7,468.66Z"/><path class="cls-1" d="M340.4,409.41c87.46,27.25,189.37-3.32,228.64-16.65a262.9,262.9,0,0,0,21-103.35A302.43,302.43,0,0,0,578.83,211c-13.23-1.9-32.71,21.43-66.5,29.76-14.5,3.58-56,27.49-159.6,76.78C269.88,357,109.22,302.42,62.82,289.41c0,55.17,18.72,103.31,39.07,138.31C131.55,417.89,244.41,379.51,340.4,409.41Z"/><path class="cls-2" d="M340.4,407.41c-96-29.85-208.85,10.48-238.51,20.31,3.49,6,24.7,32.37,28.63,38,87.64-33.84,150,7.9,163.7,3.7s70.63,42.34,141.06,42c62.23-.32,107.06-68,107.06-68C558,424.37,564.62,402,574.45,379,574.45,379,468.27,447.18,340.4,407.41Z"/><path class="cls-2" d="M348.3,80.28c46.92-21.09,87.5-21.25,120-13.13A263.69,263.69,0,0,0,152.18,91.62C152.7,92,222.63,136.77,348.3,80.28Z"/><path class="cls-1" d="M210.13,237.85C251,256.6,318.94,268.46,392.43,220c83.06-54.82,139.74-63.1,161.4-64a265,265,0,0,0-85.56-88.8c-32.47-8.12-73-8-120,13.13C222.63,136.77,152.7,92,152.18,91.62A263.93,263.93,0,0,0,75.59,208.24C76.8,208.11,132.64,202.29,210.13,237.85Z"/><path class="cls-2" d="M323.71,348.47c103.6-49.29,174.12-104.09,188.62-107.67,33.79-8.33,56.17-19.3,69.39-17.39-5.9-28.58-13.55-43.09-27.89-67.46-21.66.92-78.34,9.2-161.4,64C318.94,268.46,251,256.6,210.13,237.85,132.64,202.29,76.8,208.11,75.59,208.24a263.31,263.31,0,0,0-12.77,81.17c0,4.83-.25-4.76,0,0C84.65,323.69,240.86,387.9,323.71,348.47Z"/><path class="cls-3" d="M371.47,274.32s35,23.9,37.9,60.15l-15.31,80.25h-6.22S389,347.38,360.56,342C360.56,342,368.61,301.59,371.47,274.32Z"/><path class="cls-3" d="M273.92,274.43s-35.17,23.67-38.3,59.9l14.78,80.35,6.22,0s-.67-67.34,27.76-72.55C284.38,342.17,276.23,304.13,273.92,274.43Z"/><path class="cls-4" d="M306.84,380.54s-16.35-.57-22.32,43-7.35,74.1-7.35,74.1l29.61-48.95,11.56,66.65,17.9-67,28,52.48s4.85-99.65-26.15-121.79Z"/><path class="cls-5" d="M315.09,382.65s-7.77-.27-10.6,20.42S301,438.26,301,438.26L315.06,415l5.49,31.65,8.5-31.84,13.3,24.93s1.92-46.37-12.81-56.89Z"/><path class="cls-6" d="M287.58,148.8s-19.46,57.87-13.83,125.9c0,0,6.77,74,19.55,106.73,0,0,27.06,14.28,55.62,0,0,0,18-47.73,22.55-107.11s-9.32-111.91-14.24-125.52C357.23,148.8,328.84,165,287.58,148.8Z"/><path class="cls-3" d="M323.67,431.13l1.88-63.38,1.75-72.46s1.47-19.86-4.84-21.87c0,0-5.9-1.34-6.84,11.13,0,0,0,5.58.06,13.89.1,20.73.37,58.5,1,69.48.91,15.39,1.14,63.21,1.14,63.21Z"/><path class="cls-7" d="M333.42,386.69s32.7-125.15,0-238.89c-4.85-16.86,12.54-19.91,8.15-35.6,0,0,36.19,57.2,30.79,165.84,0,0-7.7,63.52-23.44,103.39C348.92,381.43,338.56,386.69,333.42,386.69Z"/><circle class="cls-3" cx="322.89" cy="212.44" r="31.76"/><circle class="cls-8" cx="322.89" cy="212.44" r="25.41"/><path class="cls-9" d="M301.85,226.69l31.63-37.35a23.28,23.28,0,0,1,6.92,4.7l-32.78,38.7A22.43,22.43,0,0,1,301.85,226.69Z"/><path class="cls-10" d="M320.19,80.28s-25.08,36.27-32.61,68.52c0,0,35.28,16.34,69.65,0C357.23,148.8,346,110.76,320.19,80.28Z"/><path class="cls-11" d="M180.74,243.06s-1,10.37-8.76,11c0,0,7.31,1.16,8.82,11.24,0,0,.17-9.69,8.4-10.85C189.2,254.45,181,251.83,180.74,243.06Z"/><circle class="cls-11" cx="499.7" cy="387.78" r="4.16"/><circle class="cls-11" cx="121.63" cy="330.32" r="2.08"/><path class="cls-11" d="M429.65,143.36s-1.11,11.84-10,12.56c0,0,8.36,1.33,10.09,12.84,0,0,.18-11.06,9.6-12.39C439.33,156.37,430,153.37,429.65,143.36Z"/><circle class="cls-11" cx="227.99" cy="132.38" r="4.16"/><circle class="cls-11" cx="534.72" cy="250.39" r="1.66"/><path class="cls-11" d="M398.78,493.66s-.93,9.87-8.34,10.47c0,0,7,1.1,8.4,10.7,0,0,.16-9.22,8-10.33C406.84,504.5,399.06,502,398.78,493.66Z"/><circle class="cls-11" cx="417.31" cy="283.13" r="2.5"/><circle class="cls-11" cx="176.43" cy="458.58" r="1.66"/><circle class="cls-11" cx="97.73" cy="219.26" r="4.16"/></svg>