<svg id="Layer_1" data-name="Layer 1" xmlns="http://www.w3.org/2000/svg" viewBox="0 0 342.31 303.59"><defs><style>.cls-1{fill:#ff9100;}.cls-2{fill:#febf41;}.cls-3{fill:#ffeed6;}.cls-4{fill:#fff5e9;}.cls-5{fill:#ffc192;}.cls-6{fill:#ffdebd;}.cls-7{fill:#93665a;}.cls-11,.cls-21,.cls-8{fill:none;}.cls-11,.cls-8{stroke:#a57f72;}.cls-11,.cls-19,.cls-8{stroke-miterlimit:10;}.cls-8{stroke-width:0.14px;}.cls-9{fill:#a57f72;}.cls-10{fill:#ff99d1;}.cls-11{stroke-width:0.13px;}.cls-12{fill:#ef8d6f;}.cls-13{fill:#ffb391;}.cls-14{fill:#ff7260;}.cls-15{fill:#ffcea9;}.cls-16{fill:#ffc392;}.cls-17{fill:#f49b78;}.cls-18{fill:#ffd5b3;}.cls-19{fill:#d7f9ff;stroke:#00aeef;stroke-width:0.16px;opacity:0.35;}.cls-20{fill:#fff;}.cls-22{fill:#b2a5e8;}.cls-23{fill:#c5bdef;}.cls-24{fill:red;}.cls-25{fill:#8d80d8;}</style></defs><title>rocketsideways</title><path class="cls-1" d="M117.5,162s.38,10.6-27.89,14.47-48,4.77-48,4.77L73.3,162l-43.22-7.5,43.47-11.61-34-18.17s64.62-3.15,79,17Z"/><path class="cls-2" d="M116.14,156.6s.18,5-13.25,6.88-22.82,2.26-22.82,2.26l15.08-9.12-20.53-3.56,20.65-5.51L79.1,138.92s30.07-1.25,36.89,8.3Z"/><path class="cls-3" d="M217.85,164.21c.66-1.6,3.56-1.92,3.73-4a5.27,5.27,0,0,0-1.58-3.73h0a3.69,3.69,0,0,1,.68-1.81l-.51.34.71-2.31c2.15,2.32,3.92.65,3.92.65a5.17,5.17,0,0,0,1.13-2.14c.42-1.34.56-1.76.56-1.76.28-.58.7-.51.7-.51,1.6.13.46,3.54,3,4.85a2.73,2.73,0,0,0,1.25.32h0a2.31,2.31,0,0,1-.38,2.39,1.4,1.4,0,0,0,1.24,2.29,3.7,3.7,0,0,0,1-.31,2.87,2.87,0,0,0,.17,1c.29.75.7,1.64,1,2.27a9.37,9.37,0,0,1,.48,1.77A10,10,0,0,1,235,165c-.05,4.62-1.77,5-3.07,6.16-1.46,1.25-8.34,4.6-12.66-.19A6.85,6.85,0,0,1,217.85,164.21Z"/><path class="cls-4" d="M221.58,160.24c-.17,2-3.07,2.37-3.73,4a13.68,13.68,0,0,1,2.39-4.57,7.8,7.8,0,0,1-.24-3.13h0A5.27,5.27,0,0,1,221.58,160.24Z"/><path class="cls-5" d="M224.88,152.32a9,9,0,0,1,2.47-4.26c1.79-.22.87,4.76,2.86,5.76-2.56-1.31-1.7-4.63-2.94-4.83,0,0-.4-.08-.61.49,0,0-.14.24-.73,1.76a6,6,0,0,1-1.13,2.14s-1.77,1.67-3.92-.65C223,155.05,224.88,152.32,224.88,152.32Z"/><path class="cls-5" d="M221.36,148.14s.55-2.82,1.43-3.42,1.74,1.91,1.74,1.91a11.07,11.07,0,0,1,5.32.08s1-1.71,1.59-2,1,.64,1.39,1.75a22.14,22.14,0,0,1,.63,3.81,5.85,5.85,0,0,0,.52,1.37l-.37-.21s.06,1,.06,1.61a3.2,3.2,0,0,1-2.19,1,2.78,2.78,0,0,1-1.27-.31c-2-1-1.07-6-2.86-5.76a9,9,0,0,0-2.47,4.26s-1.85,2.73-4,.41A30.84,30.84,0,0,1,221.36,148.14Z"/><path class="cls-6" d="M219.62,171.1s-1.47-.77-1.83.26-.61,1.25.85,1.75a5,5,0,0,0,2.91,0l1.49-1Z"/><ellipse class="cls-7" cx="229.26" cy="151.39" rx="0.28" ry="0.4"/><path class="cls-8" d="M227.17,152.32a1.32,1.32,0,0,1,0,.5.45.45,0,0,1-.81,0"/><path class="cls-8" d="M227.21,152.32a1.2,1.2,0,0,0,0,.5.44.44,0,0,0,.8,0"/><ellipse class="cls-7" cx="225.13" cy="151.38" rx="0.28" ry="0.4"/><path class="cls-9" d="M227.18,152.48s.44-.16.44-.4c0,0,0-.12-.21-.14h-.5a.16.16,0,0,0-.17.19C226.75,152.26,227,152.43,227.18,152.48Z"/><ellipse class="cls-10" cx="225.01" cy="152.51" rx="0.69" ry="0.19"/><ellipse class="cls-10" cx="229.36" cy="152.51" rx="0.69" ry="0.19"/><path class="cls-11" d="M228.66,155.11a2.06,2.06,0,0,1-1.73.73,2.29,2.29,0,0,1-1.42-.73"/><path class="cls-12" d="M230.48,146.89s.52-1.28,1.05-1.56,1,2.09,1,2.66A6.24,6.24,0,0,0,230.48,146.89Z"/><path class="cls-12" d="M224.1,146.81s-.56-1.52-1.14-1.51-.85,1.75-.85,1.75l-.13.86A6.44,6.44,0,0,1,224.1,146.81Z"/><path class="cls-13" d="M231.48,154.13h0a2.73,2.73,0,0,1-1.25-.32A2.78,2.78,0,0,0,231.48,154.13Z"/><path class="cls-4" d="M231.08,156.53a2.31,2.31,0,0,0,.38-2.39h0a3.19,3.19,0,0,0,2.21-1,3.07,3.07,0,0,0,.25,1.18l-.39-.17.93,1.73-.92-.46c.39.87-.24,2-.26,3.14a3.7,3.7,0,0,1-1,.31A1.4,1.4,0,0,1,231.08,156.53Z"/><path class="cls-13" d="M231.46,154.14h0a3.2,3.2,0,0,0,2.19-1A3.19,3.19,0,0,1,231.46,154.14Z"/><path class="cls-14" d="M233.3,158.24s-6.54,5.49-13.34-.51a7.63,7.63,0,0,0,.28,1.91,10.13,10.13,0,0,0,6.39,2.32,8.53,8.53,0,0,0,6.82-2.43A2.83,2.83,0,0,1,233.3,158.24Z"/><path class="cls-3" d="M225.22,158.73s-.68,1.48.51,2.22a2.1,2.1,0,0,1,.06-.64,2.71,2.71,0,0,0,.72,1.12l.41.26s-.09-.93.1-1.14a1,1,0,0,1,.28.71v.48a2.81,2.81,0,0,0,.65-1.11s.4.21.39.51a1.93,1.93,0,0,0,.41-1.15C228.71,159.41,225.22,158.73,225.22,158.73Z"/><path class="cls-6" d="M231.08,166.32s-4,3.86-9.73-2.41c-1.83-2-4.36,1-3.54,4.6.61,2.67,4.46,4.93,7.74,5s3.81-1.58,3.81-1.58Z"/><path class="cls-15" d="M221.25,148.78s.09-.14.18.49c.06.37-.25,1.4.25,1.71.66.41.81,1.22.12,1.62-.49.28-.9-.28-.9-.28A22.37,22.37,0,0,1,221.25,148.78Z"/><path class="cls-16" d="M227.86,171.45s1,.34.13.71c-2.93,1.32-9-.93-9.14-1.71a8.37,8.37,0,0,0,7,3.05C230.5,173.22,227.86,171.45,227.86,171.45Z"/><path class="cls-3" d="M221.33,163.27s1.53,8.17.95,9.15-1.48.83-1,1.79a1.74,1.74,0,0,0,2.27,1.1,2.08,2.08,0,0,0,1.37-1.95c0-.91.23-8.38.23-8.38"/><path class="cls-3" d="M231.53,164.75c-.84,1.73-1.1,8.06-1.1,8.06.55.31,1.77.67.6,1.8s-2.81-.08-2.81-.08c-.84-.84,0-7.72,0-7.72"/><path class="cls-16" d="M230,167.91a2.39,2.39,0,0,1,1.55-.73c-.42,1,1.33,1.58,2.83,1.7s.57-3.25.57-3.25l-.09,0c.11-.52.18-.93.18-.93s4.32,4.31,3.06,7.72c0,0-.8,2.26-4.74,1.81-3.7-.42-4.19-2.93-4.19-3.66A4.49,4.49,0,0,1,230,167.91Z"/><path class="cls-17" d="M235,169.29c-2.34.43-3.9-1.08-3.48-2.11.42.08.45.23.9.49,0,0,1.53.89,2,.24.29-.37.22-1.55.37-2.24l.09,0S236.75,169,235,169.29Z"/><path class="cls-6" d="M234.17,161.23s.32,3-.13,4a2.22,2.22,0,0,0,.42,2.73S235.9,165.45,234.17,161.23Z"/><path class="cls-18" d="M217.78,165.93s2.25.48,2.68,2a7.86,7.86,0,0,0,1.93,2.91v1.35s-2.66-.47-3.37-1.48a9,9,0,0,1-1.21-2.18A6.52,6.52,0,0,1,217.78,165.93Z"/><path class="cls-18" d="M219.12,163.6s2.11.06,2.54,1.54l-.19-1.1a2,2,0,0,0-1.24-.76A1.54,1.54,0,0,0,219.12,163.6Z"/><path class="cls-18" d="M227.85,167.6s-1.3,1.15,0,4.79l.29-4.9Z"/><path class="cls-4" d="M233.15,160.36s.7,2.4-.49,2.93,0,1.49.77.29S233.15,160.36,233.15,160.36Z"/><path class="cls-6" d="M236.26,173.15s-.5-.16.15-.61a2.14,2.14,0,0,0,.62-.5,3.61,3.61,0,0,0,.59-2,3,3,0,0,1-.75,2.83A.78.78,0,0,1,236.26,173.15Z"/><circle class="cls-19" cx="226.87" cy="150.42" r="10.1"/><path class="cls-20" d="M220.83,143.9s.58-.07.43.28-.37.08-1,1c-.41.58-.47,1.25-.78,1.14S219.63,144.33,220.83,143.9Z"/><circle class="cls-20" cx="218.92" cy="147.69" r="0.25"/><path class="cls-21" d="M243,151.48a16.48,16.48,0,1,1-22.75-15.23c5.16.41,10.39,1,15.64,1.69A16.45,16.45,0,0,1,243,151.48Z"/><path class="cls-22" d="M220.24,136.25a16.49,16.49,0,1,0,15.64,1.69,234.46,234.46,0,0,1,27.75,5.46c-1.05,7.83-.74,18.52,4.16,31,0,0-37.53,12.62-81.64,9,0,0-48-4.38-69.22-12.67a43.31,43.31,0,0,1-3.41-26C113.58,144.7,163.29,131.72,220.24,136.25Z"/><path class="cls-22" d="M267.45,129.15c-3.41-1.1-7.19-2.19-11.31-3.23C261.24,127.16,265.11,128.32,267.45,129.15Z"/><path class="cls-23" d="M256.14,125.92A231.75,231.75,0,0,0,186.39,120a278.39,278.39,0,0,0-69.46,14.63c25.86-10.21,67-15.2,67-15.2C214.33,118,238.47,121.45,256.14,125.92Z"/><path class="cls-23" d="M267.45,129.15c15.92,5.12,24.08,10.27,24.08,10.27-10.18-2.84-12.16,8.44-23.09,5.29-1.6-.46-3.2-.89-4.81-1.31,1.2-8.92,4.16-14.13,4.16-14.13Z"/><path class="cls-23" d="M113.52,144.71c0-3.33,3.41-10.05,3.41-10.05a38.54,38.54,0,0,0-3.41,10.05Z"/><path class="cls-23" d="M256.14,125.92c4.12,1,7.9,2.13,11.31,3.23l.34.12s-3,5.21-4.16,14.13a234.46,234.46,0,0,0-27.75-5.46,16.38,16.38,0,0,0-15.64-1.69c-57-4.53-106.66,8.45-106.72,8.46a38.54,38.54,0,0,1,3.41-10.05A278.39,278.39,0,0,1,186.39,120,231.75,231.75,0,0,1,256.14,125.92Z"/><path class="cls-24" d="M186.39,120s-15.5-22.7-39-24.58l-52,9.93v4s43.67-.72,47.17,17.69C142.51,127.11,168.71,121.89,186.39,120Z"/><path class="cls-24" d="M186.32,183.29S171,206.11,147.47,208.14l-52.1-9.59,0-4s43.67.43,47-18C142.39,176.51,167.06,181.8,186.32,183.29Z"/><path class="cls-24" d="M84.7,151l41.1-1.22,47-1.13s12.88-1,14.19,3.14c0,0,.87,3.82-7.23,4.43l-9,0c-13.44-.07-37.94-.24-45.06-.66-10-.59-41-.74-41-.74Z"/><path class="cls-25" d="M312.23,153.29s-23.53,16.26-44.44,21.15c0,0-10.59-22.88,0-45.17C267.79,129.27,292.46,136.58,312.23,153.29Z"/></svg>