<svg id="Layer_1" data-name="Layer 1" xmlns="http://www.w3.org/2000/svg" viewBox="0 0 313.57 301"><defs><style>.cls-1{fill:#ffe76e;}.cls-2{fill:#ffd215;}.cls-3,.cls-9{fill:none;}.cls-4{fill:#ff8347;}.cls-5{fill:#ffbabd;}.cls-6{fill:#fff4c5;}.cls-7{fill:#603913;}.cls-8{fill:#fff;}.cls-9{stroke:#603913;stroke-miterlimit:10;stroke-width:2px;}</style></defs><title>Saturn</title><path class="cls-1" d="M106.15,216a81.95,81.95,0,0,0,131-60.1c-17.09,12.55-38.54,25.13-62.68,36.2S126.81,211.27,106.15,216Z"/><circle class="cls-1" cx="155.4" cy="150.53" r="81.96"/><path class="cls-2" d="M134.12,71.36s14.41,36.54,45.91,43,48.92,0,48.92,0-13.29-28.93-42.56-39.7C186.39,74.63,160.77,63.41,134.12,71.36Z"/><path class="cls-2" d="M116.84,78.19s-1.43,77.05,120.53,72.34a85.07,85.07,0,0,1-.52,9.28S106.57,206.06,85.77,107.29A93.73,93.73,0,0,1,116.84,78.19Z"/><path class="cls-3" d="M76.81,198.9c3.57,1.19,8.12,1.49,13.28,1.13a81.78,81.78,0,0,1-13.15-25.76C69.35,182.83,62.89,194.26,76.81,198.9Z"/><path class="cls-3" d="M233.61,106.47a52.14,52.14,0,0,0-9.46-.54,81.53,81.53,0,0,1,11,25.87C246,119.92,246.55,109.54,233.61,106.47Z"/><path class="cls-4" d="M277.66,98.09c-6-13.17-32-15.32-66.73-7.83a82,82,0,0,1,7.89,8.36c19.26-2.52,32.83-.22,36.38,7.52s-3.76,19.86-18.64,33a81.63,81.63,0,0,1,.8,11.35c0,1.82-.08,3.62-.19,5.41C267.33,133.78,283.9,111.7,277.66,98.09Z"/><path class="cls-4" d="M94.13,204.94c-20.39,3-34.84.8-38.52-7.23s3.88-20.06,19-33.36a81.9,81.9,0,0,1-1.11-11C45.18,174.73,29.87,195.83,35.91,209c6.24,13.61,33.77,15.46,70.24,7A82.13,82.13,0,0,1,94.13,204.94Z"/><path class="cls-4" d="M236.56,139.18C220.93,153,197,168.13,168.78,181.08c-27.63,12.68-54.15,20.87-74.65,23.86a82.13,82.13,0,0,0,12,11.1c20.66-4.77,44.19-12.82,68.34-23.9s45.59-23.65,62.68-36.2c.11-1.79.19-3.59.19-5.41A81.63,81.63,0,0,0,236.56,139.18Z"/><path class="cls-5" d="M233.61,106.47c12.94,3.07,12.38,13.45,1.58,25.33.56,2.42,1,4.88,1.37,7.38,14.88-13.18,22.25-25.18,18.64-33s-17.12-10-36.38-7.52a81.79,81.79,0,0,1,5.33,7.31A52.14,52.14,0,0,1,233.61,106.47Z"/><path class="cls-5" d="M76.81,198.9c-13.92-4.64-7.46-16.07.13-24.63a83.66,83.66,0,0,1-2.32-9.92c-15.13,13.3-22.65,25.44-19,33.36s18.13,10.2,38.52,7.23q-2.11-2.37-4-4.91C84.93,200.39,80.38,200.09,76.81,198.9Z"/><path class="cls-5" d="M227,139.49c-18.16,14.85-60.66,36.31-60.66,36.31S118.86,198.06,90.09,200q1.92,2.53,4,4.91c20.5-3,47-11.18,74.65-23.86,28.23-13,52.15-28.07,67.78-41.9-.34-2.5-.81-5-1.37-7.38A78.14,78.14,0,0,1,227,139.49Z"/><path class="cls-6" d="M127.14,81.47s-9.94,9.8,22.15,9.35c35.18-.49,39.94,11.73,49.29,9.15s0-10.28,0-10.28a80.54,80.54,0,0,0-34.7-13.21,85,85,0,0,0-26.59.42C130.1,78.2,127.14,81.47,127.14,81.47Z"/><circle class="cls-6" cx="207.93" cy="106.92" r="3"/><circle class="cls-7" cx="172.45" cy="130.39" r="7.17"/><circle class="cls-7" cx="122.19" cy="155.43" r="7.17"/><circle class="cls-8" cx="123.21" cy="152.94" r="2.03"/><circle class="cls-8" cx="173.21" cy="128.02" r="2.03"/><path class="cls-9" d="M163.72,153.48s-3.66,10-11.69,9.91"/></svg>