<svg id="Layer_1" data-name="Layer 1" xmlns="http://www.w3.org/2000/svg" viewBox="0 0 2880 1800"><defs><style>.cls-1{fill:#b2a5e8;}.cls-2{fill:#ffe443;}.cls-3{fill:#64f0fb;}</style></defs><title>starswide</title><path class="cls-1" d="M72.49,85.94l4.81,9.74A2.45,2.45,0,0,0,79.17,97l10.75,1.57a2.48,2.48,0,0,1,1.38,4.24l-7.78,7.59a2.49,2.49,0,0,0-.71,2.2l1.83,10.71A2.49,2.49,0,0,1,81,126l-9.62-5.06a2.5,2.5,0,0,0-2.32,0L59.48,126a2.5,2.5,0,0,1-3.62-2.63l1.84-10.71a2.47,2.47,0,0,0-.72-2.2l-7.78-7.59a2.49,2.49,0,0,1,1.38-4.24L61.34,97a2.45,2.45,0,0,0,1.87-1.36L68,85.94A2.49,2.49,0,0,1,72.49,85.94Z"/><circle class="cls-1" cx="244.72" cy="88.06" r="4.16"/><path class="cls-2" d="M635.87,390.69l4.89,9.91a2.55,2.55,0,0,0,1.91,1.39l11,1.59a2.53,2.53,0,0,1,1.4,4.32l-7.92,7.72a2.58,2.58,0,0,0-.73,2.25l1.87,10.9a2.53,2.53,0,0,1-3.67,2.67l-9.79-5.15a2.59,2.59,0,0,0-2.36,0l-9.79,5.15a2.54,2.54,0,0,1-3.68-2.67l1.87-10.9a2.55,2.55,0,0,0-.73-2.25l-7.92-7.72a2.53,2.53,0,0,1,1.41-4.32L624.52,402a2.53,2.53,0,0,0,1.91-1.39l4.89-9.91A2.53,2.53,0,0,1,635.87,390.69Z"/><path class="cls-3" d="M92.29,825.88s-1.54,16.46-13.9,17.46c0,0,11.61,1.84,14,17.83,0,0,.26-15.37,13.33-17.21C105.73,844,92.76,839.79,92.29,825.88Z"/><path class="cls-3" d="M961.17,77.21l3.7,7.51a1.91,1.91,0,0,0,1.45,1L974.61,87a1.92,1.92,0,0,1,1.06,3.27l-6,5.85a1.92,1.92,0,0,0-.55,1.7l1.42,8.25a1.92,1.92,0,0,1-2.79,2l-7.41-3.9a2,2,0,0,0-1.79,0l-7.41,3.9a1.92,1.92,0,0,1-2.79-2l1.42-8.25a1.93,1.93,0,0,0-.56-1.7l-6-5.85A1.92,1.92,0,0,1,944.28,87l8.29-1.21a1.89,1.89,0,0,0,1.44-1l3.71-7.51A1.92,1.92,0,0,1,961.17,77.21Z"/><path class="cls-2" d="M737.89,57l3.71,7.51a1.91,1.91,0,0,0,1.45,1l8.29,1.21A1.92,1.92,0,0,1,752.4,70l-6,5.85a1.92,1.92,0,0,0-.55,1.7l1.42,8.25a1.93,1.93,0,0,1-2.79,2l-7.41-3.9a2,2,0,0,0-1.79,0l-7.42,3.9a1.92,1.92,0,0,1-2.78-2l1.41-8.25a1.89,1.89,0,0,0-.55-1.7l-6-5.85A1.92,1.92,0,0,1,721,66.74l8.29-1.21a1.91,1.91,0,0,0,1.44-1L734.45,57A1.92,1.92,0,0,1,737.89,57Z"/><path class="cls-3" d="M364.88,419.7s-1.54,16.46-13.9,17.46c0,0,11.61,1.83,14,17.83,0,0,.26-15.37,13.33-17.21C378.32,437.78,365.35,433.61,364.88,419.7Z"/><path class="cls-2" d="M411.81,192.82s-1.54,16.46-13.9,17.46c0,0,11.61,1.83,14,17.83,0,0,.26-15.37,13.33-17.21C425.25,210.9,412.28,206.73,411.81,192.82Z"/><circle class="cls-1" cx="753.41" cy="611.09" r="4.16"/><circle class="cls-1" cx="573.64" cy="122.11" r="4.16"/><circle class="cls-3" cx="1315.64" cy="88.06" r="4.16"/><circle class="cls-2" cx="123.77" cy="389.97" r="4.16"/><circle class="cls-2" cx="715.2" cy="232.27" r="4.16"/><circle class="cls-2" cx="92.06" cy="664.95" r="4.16"/><path class="cls-3" d="M569.72,711.91s-1.55,16.45-13.91,17.45c0,0,11.62,1.84,14,17.84,0,0,.26-15.38,13.34-17.22C583.16,730,570.19,725.82,569.72,711.91Z"/><circle class="cls-2" cx="461.91" cy="559.82" r="4.16"/><path class="cls-1" d="M1000.29,380.94l4.81,9.74A2.45,2.45,0,0,0,1007,392l10.76,1.57a2.49,2.49,0,0,1,1.38,4.24l-7.78,7.59a2.47,2.47,0,0,0-.72,2.2l1.84,10.71a2.49,2.49,0,0,1-3.62,2.63l-9.61-5.06a2.5,2.5,0,0,0-2.32,0L987.28,421a2.49,2.49,0,0,1-3.61-2.63l1.83-10.71a2.46,2.46,0,0,0-.71-2.2L977,397.85a2.48,2.48,0,0,1,1.38-4.24L989.14,392a2.48,2.48,0,0,0,1.88-1.36l4.8-9.74A2.49,2.49,0,0,1,1000.29,380.94Z"/><path class="cls-2" d="M1879.45,937.75l4.9,9.92a2.53,2.53,0,0,0,1.91,1.39l10.94,1.59a2.53,2.53,0,0,1,1.41,4.32l-7.92,7.72a2.52,2.52,0,0,0-.73,2.24l1.87,10.91a2.54,2.54,0,0,1-3.68,2.67l-9.79-5.15a2.53,2.53,0,0,0-2.36,0l-9.79,5.15a2.54,2.54,0,0,1-3.68-2.67l1.87-10.91a2.52,2.52,0,0,0-.73-2.24l-7.92-7.72a2.53,2.53,0,0,1,1.41-4.32l10.94-1.59a2.53,2.53,0,0,0,1.91-1.39l4.9-9.92A2.53,2.53,0,0,1,1879.45,937.75Z"/><path class="cls-3" d="M976.49,929.76s-1.55,16.46-13.91,17.46c0,0,11.62,1.83,14,17.83,0,0,.26-15.37,13.33-17.21C989.92,947.84,977,943.67,976.49,929.76Z"/><path class="cls-3" d="M999.78,1375.34l3.71,7.52a1.93,1.93,0,0,0,1.44,1.05l8.29,1.2a1.93,1.93,0,0,1,1.07,3.28l-6,5.84a1.93,1.93,0,0,0-.56,1.7l1.42,8.26a1.92,1.92,0,0,1-2.78,2l-7.42-3.9a2,2,0,0,0-1.79,0l-7.41,3.9a1.92,1.92,0,0,1-2.79-2l1.42-8.26a1.92,1.92,0,0,0-.55-1.7l-6-5.84a1.92,1.92,0,0,1,1.06-3.28l8.29-1.2a1.93,1.93,0,0,0,1.45-1.05l3.71-7.52A1.92,1.92,0,0,1,999.78,1375.34Z"/><path class="cls-2" d="M1983.69,632.19l3.71,7.51a1.91,1.91,0,0,0,1.45,1l8.29,1.21a1.92,1.92,0,0,1,1.06,3.27l-6,5.85a1.92,1.92,0,0,0-.55,1.7l1.41,8.26a1.92,1.92,0,0,1-2.78,2l-7.41-3.9a2,2,0,0,0-1.79,0l-7.42,3.9a1.92,1.92,0,0,1-2.78-2l1.41-8.26a1.92,1.92,0,0,0-.55-1.7l-6-5.85a1.92,1.92,0,0,1,1.07-3.27l8.29-1.21a1.91,1.91,0,0,0,1.44-1l3.71-7.51A1.92,1.92,0,0,1,1983.69,632.19Z"/><path class="cls-3" d="M1361.05,1146.61s-1.54,16.45-13.9,17.45c0,0,11.61,1.84,14,17.84,0,0,.26-15.38,13.33-17.21C1374.49,1164.69,1361.52,1160.52,1361.05,1146.61Z"/><path class="cls-2" d="M1271.87,812.4s-1.54,16.46-13.9,17.45c0,0,11.61,1.84,14,17.84,0,0,.26-15.37,13.33-17.21C1285.31,830.48,1272.34,826.31,1271.87,812.4Z"/><circle class="cls-1" cx="1715.98" cy="1190.22" r="4.16"/><circle class="cls-1" cx="1342.99" cy="531.85" r="4.16"/><circle class="cls-3" cx="1154.88" cy="1081.03" r="4.16"/><circle class="cls-2" cx="976.25" cy="682.39" r="4.16"/><circle class="cls-2" cx="1616.97" cy="896.99" r="4.16"/><circle class="cls-2" cx="1230.62" cy="1416.15" r="4.16"/><path class="cls-3" d="M1329.55,1610.69s-1.55,16.45-13.91,17.45c0,0,11.62,1.84,14,17.84,0,0,.26-15.37,13.34-17.21C1343,1628.77,1330,1624.6,1329.55,1610.69Z"/><circle class="cls-2" cx="1503.73" cy="1406.44" r="4.16"/><path class="cls-1" d="M1575.59,841.7l4.81,9.75a2.49,2.49,0,0,0,1.87,1.36l10.76,1.56a2.5,2.5,0,0,1,1.38,4.25l-7.78,7.58a2.5,2.5,0,0,0-.72,2.21l1.84,10.71a2.49,2.49,0,0,1-3.62,2.62l-9.61-5a2.45,2.45,0,0,0-2.32,0l-9.62,5a2.49,2.49,0,0,1-3.61-2.62l1.83-10.71a2.49,2.49,0,0,0-.71-2.21l-7.78-7.58a2.49,2.49,0,0,1,1.38-4.25l10.75-1.56a2.53,2.53,0,0,0,1.88-1.36l4.8-9.75A2.49,2.49,0,0,1,1575.59,841.7Z"/><circle class="cls-1" cx="2161.54" cy="155.2" r="4.16"/><path class="cls-2" d="M1232.9,234.08l4.89,9.92a2.54,2.54,0,0,0,1.91,1.38l11,1.59a2.54,2.54,0,0,1,1.4,4.33l-7.92,7.72a2.52,2.52,0,0,0-.73,2.24l1.87,10.9a2.53,2.53,0,0,1-3.68,2.67l-9.79-5.15a2.59,2.59,0,0,0-2.36,0l-9.78,5.15a2.53,2.53,0,0,1-3.68-2.67l1.87-10.9a2.52,2.52,0,0,0-.73-2.24l-7.92-7.72a2.54,2.54,0,0,1,1.4-4.33l11-1.59a2.56,2.56,0,0,0,1.91-1.38l4.89-9.92A2.53,2.53,0,0,1,1232.9,234.08Z"/><path class="cls-3" d="M1517.64,341.06s-1.55,16.46-13.91,17.45c0,0,11.62,1.84,14,17.84,0,0,.26-15.37,13.33-17.21C1531.07,359.14,1518.11,355,1517.64,341.06Z"/><path class="cls-3" d="M1862.09,238.89l3.71,7.51a1.93,1.93,0,0,0,1.44,1l8.29,1.2a1.92,1.92,0,0,1,1.07,3.28l-6,5.84a1.92,1.92,0,0,0-.55,1.7l1.41,8.26a1.91,1.91,0,0,1-2.78,2l-7.42-3.9a1.93,1.93,0,0,0-1.78,0l-7.42,3.9a1.91,1.91,0,0,1-2.78-2l1.41-8.26a1.92,1.92,0,0,0-.55-1.7l-6-5.84a1.92,1.92,0,0,1,1.07-3.28l8.29-1.2a1.93,1.93,0,0,0,1.44-1l3.71-7.51A1.92,1.92,0,0,1,1862.09,238.89Z"/><path class="cls-2" d="M2753.67,406.26l3.71,7.51a1.91,1.91,0,0,0,1.45,1.05l8.29,1.2a1.92,1.92,0,0,1,1.06,3.28l-6,5.84a1.93,1.93,0,0,0-.55,1.7l1.41,8.26a1.91,1.91,0,0,1-2.78,2l-7.42-3.89a1.87,1.87,0,0,0-1.78,0l-7.42,3.89a1.92,1.92,0,0,1-2.78-2l1.41-8.26a1.93,1.93,0,0,0-.55-1.7l-6-5.84a1.92,1.92,0,0,1,1.07-3.28l8.29-1.2a1.91,1.91,0,0,0,1.44-1.05l3.71-7.51A1.92,1.92,0,0,1,2753.67,406.26Z"/><path class="cls-3" d="M2081.35,372.33s-1.54,16.45-13.9,17.45c0,0,11.61,1.84,14,17.84,0,0,.26-15.38,13.33-17.21C2094.79,390.41,2081.82,386.24,2081.35,372.33Z"/><path class="cls-2" d="M2315,117.32s-1.54,16.45-13.9,17.45c0,0,11.61,1.84,14,17.84,0,0,.26-15.37,13.33-17.21C2328.4,135.4,2315.43,131.23,2315,117.32Z"/><circle class="cls-1" cx="2670.24" cy="678.23" r="4.16"/><circle class="cls-1" cx="2490.47" cy="189.25" r="4.16"/><circle class="cls-3" cx="1666.26" cy="631.12" r="4.16"/><circle class="cls-2" cx="1803.78" cy="341.06" r="4.16"/><circle class="cls-2" cx="2387.3" cy="425.26" r="4.16"/><circle class="cls-2" cx="2165.7" cy="825.88" r="4.16"/><path class="cls-3" d="M2486.54,779.05s-1.54,16.45-13.9,17.45c0,0,11.61,1.84,14,17.84,0,0,.26-15.38,13.33-17.22C2500,797.12,2487,793,2486.54,779.05Z"/><circle class="cls-2" cx="2378.73" cy="626.96" r="4.16"/><path class="cls-1" d="M1718.21,1523.33l4.81,9.74a2.53,2.53,0,0,0,1.88,1.36l10.75,1.56a2.49,2.49,0,0,1,1.38,4.25l-7.78,7.59a2.47,2.47,0,0,0-.72,2.2l1.84,10.71a2.49,2.49,0,0,1-3.61,2.62l-9.62-5a2.5,2.5,0,0,0-2.32,0l-9.62,5a2.49,2.49,0,0,1-3.61-2.62l1.84-10.71a2.47,2.47,0,0,0-.72-2.2l-7.78-7.59a2.49,2.49,0,0,1,1.38-4.25l10.75-1.56a2.49,2.49,0,0,0,1.88-1.36l4.81-9.74A2.48,2.48,0,0,1,1718.21,1523.33Z"/><circle class="cls-1" cx="2124.33" cy="1109.43" r="4.16"/><path class="cls-2" d="M2630.14,1323.94l4.89,9.91a2.55,2.55,0,0,0,1.91,1.39l10.95,1.59a2.53,2.53,0,0,1,1.4,4.32l-7.92,7.72a2.57,2.57,0,0,0-.73,2.25l1.87,10.9a2.53,2.53,0,0,1-3.67,2.67l-9.79-5.15a2.53,2.53,0,0,0-2.36,0l-9.79,5.15a2.54,2.54,0,0,1-3.68-2.67l1.87-10.9a2.54,2.54,0,0,0-.73-2.25l-7.92-7.72a2.53,2.53,0,0,1,1.41-4.32l10.94-1.59a2.53,2.53,0,0,0,1.91-1.39l4.89-9.91A2.53,2.53,0,0,1,2630.14,1323.94Z"/><path class="cls-3" d="M1982.21,1336.55s-1.55,16.45-13.91,17.45c0,0,11.61,1.84,14,17.84,0,0,.26-15.38,13.33-17.21C1995.64,1354.63,1982.67,1350.46,1982.21,1336.55Z"/><path class="cls-3" d="M1983.69,1629.4l3.71,7.52a2,2,0,0,0,1.45,1l8.29,1.2a1.92,1.92,0,0,1,1.06,3.27l-6,5.85a1.92,1.92,0,0,0-.55,1.7l1.41,8.26a1.91,1.91,0,0,1-2.78,2l-7.41-3.9a2,2,0,0,0-1.79,0l-7.42,3.9a1.92,1.92,0,0,1-2.78-2l1.41-8.26a1.92,1.92,0,0,0-.55-1.7l-6-5.85a1.92,1.92,0,0,1,1.07-3.27l8.29-1.2a2,2,0,0,0,1.44-1l3.71-7.52A1.92,1.92,0,0,1,1983.69,1629.4Z"/><path class="cls-2" d="M2770.48,947l3.71,7.51a1.91,1.91,0,0,0,1.45,1l8.29,1.2A1.92,1.92,0,0,1,2785,960l-6,5.85a1.9,1.9,0,0,0-.55,1.69l1.41,8.26a1.91,1.91,0,0,1-2.78,2l-7.42-3.89a1.87,1.87,0,0,0-1.78,0l-7.42,3.89a1.92,1.92,0,0,1-2.78-2l1.41-8.26a1.9,1.9,0,0,0-.55-1.69l-6-5.85a1.92,1.92,0,0,1,1.07-3.28l8.29-1.2a1.91,1.91,0,0,0,1.44-1L2767,947A1.92,1.92,0,0,1,2770.48,947Z"/><path class="cls-3" d="M2342.31,1318.9s-1.55,16.46-13.91,17.46c0,0,11.61,1.83,14,17.83,0,0,.26-15.37,13.33-17.21C2355.74,1337,2342.77,1332.81,2342.31,1318.9Z"/><path class="cls-2" d="M2369.7,1015.88s-1.54,16.46-13.91,17.46c0,0,11.62,1.83,14,17.83,0,0,.26-15.37,13.33-17.21C2383.14,1034,2370.17,1029.79,2369.7,1015.88Z"/><circle class="cls-1" cx="2665.13" cy="1564.87" r="4.16"/><circle class="cls-1" cx="2550.9" cy="1146.61" r="4.16"/><circle class="cls-3" cx="2160.6" cy="1487.81" r="4.16"/><circle class="cls-2" cx="2789.73" cy="1259.78" r="4.16"/><circle class="cls-2" cx="2226.8" cy="1683.33" r="4.16"/><path class="cls-3" d="M2481.44,1665.69s-1.55,16.45-13.91,17.45c0,0,11.61,1.84,14,17.84,0,0,.26-15.37,13.33-17.21C2494.87,1683.77,2481.9,1679.6,2481.44,1665.69Z"/><circle class="cls-2" cx="2373.63" cy="1513.6" r="4.16"/><path class="cls-1" d="M1597.39,115.49l4.81,9.75a2.53,2.53,0,0,0,1.88,1.36l10.75,1.56a2.49,2.49,0,0,1,1.38,4.25l-7.78,7.58a2.49,2.49,0,0,0-.72,2.21l1.84,10.71a2.49,2.49,0,0,1-3.61,2.62l-9.62-5.06a2.5,2.5,0,0,0-2.32,0l-9.62,5.06a2.49,2.49,0,0,1-3.61-2.62l1.84-10.71a2.49,2.49,0,0,0-.72-2.21l-7.78-7.58a2.49,2.49,0,0,1,1.38-4.25l10.75-1.56a2.49,2.49,0,0,0,1.88-1.36l4.81-9.75A2.49,2.49,0,0,1,1597.39,115.49Z"/><circle class="cls-1" cx="310.89" cy="814.34" r="4.16"/><path class="cls-2" d="M1022.13,1659.36l4.9,9.91a2.53,2.53,0,0,0,1.91,1.39l10.94,1.59a2.53,2.53,0,0,1,1.41,4.32l-7.92,7.72a2.54,2.54,0,0,0-.73,2.25l1.87,10.9a2.54,2.54,0,0,1-3.68,2.67L1021,1695a2.53,2.53,0,0,0-2.36,0l-9.79,5.15a2.53,2.53,0,0,1-3.67-2.67l1.86-10.9a2.54,2.54,0,0,0-.72-2.25l-7.92-7.72a2.53,2.53,0,0,1,1.4-4.32l10.95-1.59a2.53,2.53,0,0,0,1.9-1.39l4.9-9.91A2.53,2.53,0,0,1,1022.13,1659.36Z"/><path class="cls-3" d="M140.82,1234.93s-1.55,16.45-13.91,17.45c0,0,11.61,1.84,14,17.84,0,0,.26-15.37,13.33-17.21C154.25,1253,141.28,1248.84,140.82,1234.93Z"/><path class="cls-3" d="M142.3,1664.16l3.71,7.51a1.91,1.91,0,0,0,1.45,1l8.29,1.21a1.92,1.92,0,0,1,1.06,3.27l-6,5.85a1.92,1.92,0,0,0-.55,1.7l1.42,8.26a1.92,1.92,0,0,1-2.79,2l-7.41-3.9a2,2,0,0,0-1.79,0l-7.42,3.9a1.92,1.92,0,0,1-2.78-2l1.41-8.26a1.89,1.89,0,0,0-.55-1.7l-6-5.85a1.92,1.92,0,0,1,1.07-3.27l8.29-1.21a1.91,1.91,0,0,0,1.44-1l3.71-7.51A1.92,1.92,0,0,1,142.3,1664.16Z"/><path class="cls-2" d="M696,1279.18l3.7,7.52a1.93,1.93,0,0,0,1.45,1l8.29,1.2a1.92,1.92,0,0,1,1.06,3.28l-6,5.84a1.92,1.92,0,0,0-.55,1.7l1.42,8.26a1.92,1.92,0,0,1-2.79,2l-7.41-3.9a2,2,0,0,0-1.79,0l-7.41,3.9a1.92,1.92,0,0,1-2.79-2l1.42-8.26a2,2,0,0,0-.55-1.7l-6-5.84a1.92,1.92,0,0,1,1.06-3.28l8.29-1.2a1.93,1.93,0,0,0,1.45-1l3.7-7.52A1.93,1.93,0,0,1,696,1279.18Z"/><path class="cls-3" d="M444.72,1224.49s-1.54,16.46-13.9,17.46c0,0,11.61,1.83,14,17.83,0,0,.26-15.37,13.33-17.21C458.16,1242.57,445.19,1238.4,444.72,1224.49Z"/><path class="cls-2" d="M482.14,1045s-1.54,16.45-13.91,17.45c0,0,11.62,1.84,14,17.84,0,0,.26-15.37,13.33-17.21C495.58,1063.07,482.61,1058.9,482.14,1045Z"/><circle class="cls-1" cx="823.74" cy="1463.26" r="4.16"/><circle class="cls-1" cx="643.97" cy="974.27" r="4.16"/><circle class="cls-3" cx="231.41" cy="1454.94" r="4.16"/><circle class="cls-2" cx="235.57" cy="1037.69" r="4.16"/><circle class="cls-2" cx="785.53" cy="1084.44" r="4.16"/><circle class="cls-2" cx="360.49" cy="1679.17" r="4.16"/><path class="cls-3" d="M640.05,1564.07s-1.55,16.46-13.91,17.45c0,0,11.61,1.84,14,17.84,0,0,.26-15.37,13.33-17.21C653.48,1582.15,640.52,1578,640.05,1564.07Z"/><circle class="cls-2" cx="532.24" cy="1411.99" r="4.16"/><circle class="cls-1" cx="2768.76" cy="139.12" r="4.16"/></svg>