<svg id="Layer_1" data-name="Layer 1" xmlns="http://www.w3.org/2000/svg" viewBox="0 0 270.33 303.59"><defs><style>.cls-1{fill:#ff9100;}.cls-2{fill:#febf41;}.cls-3{fill:#ffeed6;}.cls-4{fill:#fff5e9;}.cls-5{fill:#ffc192;}.cls-6{fill:#ffdebd;}.cls-7{fill:#93665a;}.cls-11,.cls-21,.cls-8{fill:none;}.cls-11,.cls-8{stroke:#a57f72;}.cls-11,.cls-19,.cls-8{stroke-miterlimit:10;}.cls-8{stroke-width:0.17px;}.cls-9{fill:#a57f72;}.cls-10{fill:#ff99d1;}.cls-11{stroke-width:0.16px;}.cls-12{fill:#ef8d6f;}.cls-13{fill:#ffb391;}.cls-14{fill:#ff7260;}.cls-15{fill:#ffcea9;}.cls-16{fill:#ffc392;}.cls-17{fill:#f49b78;}.cls-18{fill:#ffd5b3;}.cls-19{fill:#d7f9ff;stroke:#00aeef;stroke-width:0.2px;opacity:0.35;}.cls-20{fill:#fff;}.cls-22{fill:#b2a5e8;}.cls-23{fill:#c5bdef;}.cls-24{fill:red;}.cls-25{fill:#8d80d8;}</style></defs><title>start</title><path class="cls-1" d="M125.52,206.79s-10.61-.38-14.48,27.89-4.76,48.05-4.76,48.05L125.48,251,133,294.21l11.61-43.47,18.17,34s3.15-64.62-17-79Z"/><path class="cls-2" d="M130.86,208.15s-5-.18-6.87,13.25-2.26,22.82-2.26,22.82l9.11-15.08,3.56,20.53L139.92,229l8.63,16.16s1.24-30.07-8.31-36.89Z"/><path class="cls-3" d="M147.38,114.08c-.82-2-4.4-2.37-4.6-4.9s1.95-4.6,1.95-4.6h0a4.63,4.63,0,0,0-.85-2.24l.63.43-.87-2.86c-2.66,2.86-4.84.8-4.84.8a6.4,6.4,0,0,1-1.4-2.63c-.52-1.66-.7-2.18-.7-2.18-.33-.72-.85-.63-.85-.63-2,.15-.57,4.36-3.74,6a3.33,3.33,0,0,1-1.53.39h0a2.86,2.86,0,0,0,.46,2.95,1.73,1.73,0,0,1-1.53,2.83,4.89,4.89,0,0,1-1.19-.38,3.26,3.26,0,0,1-.21,1.25c-.35.94-.86,2-1.17,2.8a11,11,0,0,0-.73,4c.05,5.71,2.18,6.21,3.79,7.61,1.79,1.55,10.29,5.68,15.63-.24A8.46,8.46,0,0,0,147.38,114.08Z"/><path class="cls-4" d="M142.78,109.18c.2,2.53,3.78,2.93,4.6,4.9a16.85,16.85,0,0,0-2.95-5.64,9.78,9.78,0,0,0,.3-3.86h0S142.57,106.64,142.78,109.18Z"/><path class="cls-5" d="M138.7,99.4a11.19,11.19,0,0,0-3-5.26c-2.21-.27-1.07,5.89-3.54,7.12,3.17-1.63,2.11-5.72,3.63-6,0,0,.5-.1.76.61a23.37,23.37,0,0,1,.9,2.18,7.28,7.28,0,0,0,1.4,2.63s2.18,2.06,4.84-.8C141,102.77,138.7,99.4,138.7,99.4Z"/><path class="cls-5" d="M143,94.24s-.68-3.48-1.76-4.21-2.16,2.35-2.16,2.35a13.77,13.77,0,0,0-6.56.1s-1.23-2.11-2-2.4-1.23.78-1.72,2.15a27.84,27.84,0,0,0-.78,4.71,7.29,7.29,0,0,1-.64,1.69l.46-.27s-.07,1.18-.07,2a3.91,3.91,0,0,0,2.7,1.29,3.43,3.43,0,0,0,1.56-.38c2.47-1.23,1.33-7.39,3.54-7.12a11.19,11.19,0,0,1,3,5.26s2.28,3.37,4.94.51A39.59,39.59,0,0,0,143,94.24Z"/><path class="cls-6" d="M145.19,122.59s1.81-1,2.26.33.75,1.53-1,2.15a6.1,6.1,0,0,1-3.59,0L141,123.8Z"/><ellipse class="cls-7" cx="133.29" cy="98.26" rx="0.35" ry="0.49"/><path class="cls-8" d="M135.86,99.4a1.53,1.53,0,0,0,0,.63.56.56,0,0,0,1,0"/><path class="cls-8" d="M135.82,99.4a1.53,1.53,0,0,1,0,.63.55.55,0,0,1-1,0"/><ellipse class="cls-7" cx="138.39" cy="98.24" rx="0.35" ry="0.49"/><path class="cls-9" d="M135.85,99.61s-.54-.21-.54-.51c0,0,0-.14.26-.16s.58,0,.62,0,.22.1.21.24S136.08,99.55,135.85,99.61Z"/><ellipse class="cls-10" cx="138.53" cy="99.63" rx="0.85" ry="0.23"/><ellipse class="cls-10" cx="133.17" cy="99.63" rx="0.85" ry="0.23"/><path class="cls-11" d="M134,102.85a2.5,2.5,0,0,0,2.13.89,2.81,2.81,0,0,0,1.76-.89"/><path class="cls-12" d="M131.78,92.71s-.64-1.59-1.29-1.93-1.23,2.57-1.28,3.27A7.62,7.62,0,0,1,131.78,92.71Z"/><path class="cls-12" d="M139.66,92.61s.69-1.88,1.41-1.87,1.05,2.16,1.05,2.16l.16,1.06A7.79,7.79,0,0,0,139.66,92.61Z"/><path class="cls-13" d="M130.55,101.64h0a3.33,3.33,0,0,0,1.53-.39A3.43,3.43,0,0,1,130.55,101.64Z"/><path class="cls-4" d="M131,104.6a2.86,2.86,0,0,1-.46-2.95h0a3.87,3.87,0,0,1-2.73-1.3,3.66,3.66,0,0,1-.32,1.46l.49-.21-1.15,2.13,1.14-.56c-.49,1.07.29,2.42.31,3.88a4.89,4.89,0,0,0,1.19.38A1.73,1.73,0,0,0,131,104.6Z"/><path class="cls-13" d="M130.58,101.65h0a3.91,3.91,0,0,1-2.7-1.29A3.87,3.87,0,0,0,130.58,101.65Z"/><path class="cls-14" d="M128.3,106.71s8.08,6.78,16.47-.63a9.89,9.89,0,0,1-.34,2.36s-2.61,2.59-7.9,2.87a10.57,10.57,0,0,1-8.42-3A3.47,3.47,0,0,0,128.3,106.71Z"/><path class="cls-3" d="M138.28,107.32s.84,1.82-.63,2.74a2.51,2.51,0,0,0-.07-.79,3.42,3.42,0,0,1-.89,1.38l-.51.32s.11-1.14-.12-1.41a1.22,1.22,0,0,0-.35.88v.6a3.59,3.59,0,0,1-.81-1.38s-.49.26-.47.64a2.4,2.4,0,0,1-.51-1.42C134,108.16,138.28,107.32,138.28,107.32Z"/><path class="cls-6" d="M131.05,116.69s5,4.77,12-3c2.26-2.49,5.37,1.26,4.36,5.68-.75,3.29-5.5,6.08-9.54,6.15s-4.71-2-4.71-2Z"/><path class="cls-15" d="M143.18,95s-.11-.18-.23.6c-.07.46.32,1.72-.3,2.11-.82.51-1,1.51-.15,2,.61.35,1.11-.35,1.11-.35A28,28,0,0,0,143.18,95Z"/><path class="cls-16" d="M135,123s-1.2.42-.17.88c3.63,1.63,11.14-1.15,11.29-2.11a10.33,10.33,0,0,1-8.66,3.76C131.76,125.21,135,123,135,123Z"/><path class="cls-3" d="M143.08,112.92s-1.88,10.09-1.18,11.3,1.84,1,1.27,2.21-1.67,1.88-2.81,1.36a2.57,2.57,0,0,1-1.69-2.41c0-1.12-.28-10.35-.28-10.35"/><path class="cls-3" d="M130.49,114.75c1,2.14,1.36,10,1.36,10-.69.38-2.19.83-.75,2.23s3.48-.1,3.48-.1c1-1,0-9.53,0-9.53"/><path class="cls-16" d="M132.41,118.65a2.94,2.94,0,0,0-1.92-.9c.53,1.27-1.63,2-3.49,2.1s-.7-4-.7-4l.11.06c-.14-.65-.22-1.16-.22-1.16s-5.33,5.33-3.78,9.54c0,0,1,2.79,5.86,2.24,4.56-.52,5.17-3.62,5.17-4.53A5.54,5.54,0,0,0,132.41,118.65Z"/><path class="cls-17" d="M126.21,120.36c2.88.53,4.81-1.34,4.28-2.61-.51.1-.55.29-1.11.6,0,0-1.88,1.11-2.51.3-.36-.45-.27-1.91-.46-2.76l-.11-.06S124,120,126.21,120.36Z"/><path class="cls-6" d="M127.23,110.41s-.4,3.73.16,4.87a2.74,2.74,0,0,1-.52,3.37S125.09,115.61,127.23,110.41Z"/><path class="cls-18" d="M147.47,116.2s-2.78.6-3.31,2.45a9.78,9.78,0,0,1-2.39,3.6v1.66s3.28-.58,4.16-1.83a10.87,10.87,0,0,0,1.49-2.68A8.1,8.1,0,0,0,147.47,116.2Z"/><path class="cls-18" d="M145.81,113.33s-2.6.07-3.13,1.9l.23-1.35a2.43,2.43,0,0,1,1.53-.95A2,2,0,0,1,145.81,113.33Z"/><path class="cls-18" d="M135,118.27s1.6,1.42,0,5.91l-.36-6.05Z"/><path class="cls-4" d="M128.49,109.33s-.86,3,.6,3.61,0,1.85-.94.36S128.49,109.33,128.49,109.33Z"/><path class="cls-6" d="M124.64,125.12s.62-.19-.18-.76a2.34,2.34,0,0,1-.76-.62,4.39,4.39,0,0,1-.73-2.41,3.75,3.75,0,0,0,.93,3.49A.94.94,0,0,0,124.64,125.12Z"/><circle class="cls-19" cx="136.24" cy="97.06" r="12.47"/><path class="cls-20" d="M143.7,89s-.71-.09-.53.35.45.1,1.25,1.22c.5.71.57,1.55,1,1.4S145.18,89.54,143.7,89Z"/><circle class="cls-20" cx="146.06" cy="93.69" r="0.31"/><path class="cls-21" d="M136,81.3a16.48,16.48,0,1,0,15.24,22.75c-.41-5.16-1-10.39-1.69-15.64A16.47,16.47,0,0,0,136,81.3Z"/><path class="cls-22" d="M151.22,104.05a16.49,16.49,0,1,1-1.69-15.64,236.54,236.54,0,0,0-5.47-27.75c-7.83,1.05-18.52.74-31-4.16,0,0-12.62,37.53-9,81.64,0,0,4.39,48,12.67,69.22a43.31,43.31,0,0,0,26,3.41C142.77,210.71,155.74,161,151.22,104.05Z"/><path class="cls-22" d="M158.32,56.84c1.09,3.41,2.18,7.19,3.23,11.31C160.31,63.05,159.14,59.18,158.32,56.84Z"/><path class="cls-23" d="M161.55,68.15a231.81,231.81,0,0,1,5.88,69.75,278.39,278.39,0,0,1-14.63,69.46C163,181.5,168,140.31,168,140.31,169.51,110,166,85.82,161.55,68.15Z"/><path class="cls-23" d="M158.32,56.84C153.2,40.92,148,32.76,148,32.76c2.85,10.18-8.43,12.16-5.29,23.09.46,1.6.89,3.2,1.31,4.81A42.53,42.53,0,0,0,158.2,56.5C158.23,56.6,158.28,56.73,158.32,56.84Z"/><path class="cls-23" d="M142.75,210.77c3.33,0,10.05-3.41,10.05-3.41a38.54,38.54,0,0,1-10.05,3.41Z"/><path class="cls-23" d="M161.55,68.15c-1.05-4.12-2.14-7.9-3.23-11.31,0-.11-.09-.24-.12-.34a42.53,42.53,0,0,1-14.14,4.16,236.54,236.54,0,0,1,5.47,27.75,16.46,16.46,0,0,1,1.69,15.64c4.52,57-8.45,106.66-8.47,106.72a38.54,38.54,0,0,0,10.05-3.41,278.39,278.39,0,0,0,14.63-69.46A231.81,231.81,0,0,0,161.55,68.15Z"/><path class="cls-24" d="M167.43,137.9s22.71,15.5,24.58,39l-9.93,52h-4s.73-43.67-17.69-47.17C160.35,181.78,165.57,155.58,167.43,137.9Z"/><path class="cls-24" d="M104.17,138s-22.81,15.35-24.84,38.85l9.58,52.11,4,0s-.43-43.67,18-47C111,181.9,105.67,157.23,104.17,138Z"/><path class="cls-24" d="M136.43,239.59l1.22-41.1,1.13-47s.95-12.88-3.13-14.19c0,0-3.83-.87-4.44,7.23,0,0,0,3.61,0,9,.06,13.44.24,37.94.66,45.06.58,10,.73,41,.73,41Z"/><path class="cls-25" d="M134.17,12.06S117.91,35.59,113,56.5c0,0,22.89,10.59,45.18,0C158.2,56.5,150.88,31.83,134.17,12.06Z"/></svg>