<svg id="Layer_1" data-name="Layer 1" xmlns="http://www.w3.org/2000/svg" viewBox="0 0 313.57 301"><defs><style>.cls-1{fill:#76c7f4;}.cls-2{fill:#a0daf9;}.cls-3{fill:#81d6fc;}.cls-4{fill:#ace5f9;}.cls-5{fill:#bdebff;}.cls-6{fill:#603913;}.cls-7{fill:#fff;}.cls-8{fill:none;stroke:#603913;stroke-miterlimit:10;stroke-width:2px;}</style></defs><title>Uranus</title><path class="cls-1" d="M233.58,121.83H203.67a4.9,4.9,0,0,1,0-9.79h4s2.78,0,2.46-2.16c-.22-1.48-1.67-1.46-3.74-1.48H190a4.9,4.9,0,1,1,0-9.8h30.24A82,82,0,0,0,81.94,117.1l66.63-.86a10.16,10.16,0,0,1,10.26,10h0a10.15,10.15,0,0,1-10,10.25l-33.59.44c-1.69.22-3.58.92-3.77,2.91a4,4,0,0,0,2.77,4.44c.36.09.72.19,1.07.31h0a10.12,10.12,0,0,1-3.17,19.69l-36.1.46a82,82,0,1,0,157.5-42.92Z"/><path class="cls-1" d="M75.59,139.38c-.11.8-.22,1.6-.3,2.41a2.21,2.21,0,0,0,.34-1A5.44,5.44,0,0,0,75.59,139.38Z"/><path class="cls-1" d="M226.94,108.1h0Z"/><path class="cls-2" d="M229.17,112l-.08-.15.07.15Z"/><path class="cls-2" d="M226.94,108.1h0c.06.11.12.23.19.34Z"/><path class="cls-2" d="M229.6,112.9h.06l-.49-.86h0C229.32,112.32,229.46,112.61,229.6,112.9Z"/><path class="cls-3" d="M229.6,112.9c-.14-.29-.28-.58-.44-.86l-.07-.15-2-3.45c-.07-.11-.13-.23-.19-.34h0a83.24,83.24,0,0,0-6.71-9.49H190a4.9,4.9,0,1,0,0,9.8h16.41c2.07,0,3.52,0,3.74,1.48.32,2.16-2.46,2.16-2.46,2.16h-4a4.9,4.9,0,0,0,0,9.79h29.91A80.32,80.32,0,0,0,229.6,112.9Z"/><path class="cls-3" d="M115.67,136.88a13.23,13.23,0,0,1,2.34,0h-2.34l-.43.05,33.59-.44a10.15,10.15,0,0,0,10-10.25h0a10.16,10.16,0,0,0-10.26-10l-66.63.86A81.23,81.23,0,0,0,76,136.68Z"/><path class="cls-3" d="M122.17,154a10.15,10.15,0,0,0-6.82-9.43l-26.46,4L75,145.86c-.09,1.54-.14,3.08-.14,4.64a82.54,82.54,0,0,0,1.26,14.25l36.1-.46A10.15,10.15,0,0,0,122.17,154Z"/><path class="cls-2" d="M114.24,144.28a5.87,5.87,0,0,0,1.07.31C115,144.47,114.6,144.37,114.24,144.28Z"/><polygon class="cls-2" points="71.81 136.66 71.83 136.66 71.82 136.66 71.81 136.66"/><path class="cls-3" d="M111.92,144a10.5,10.5,0,0,1,2.32.25,4,4,0,0,1-2.77-4.44c.19-2,2.08-2.69,3.77-2.91l-39.37.5c-.1.65-.19,1.3-.28,1.95a5.44,5.44,0,0,1,0,1.37,2.21,2.21,0,0,1-.34,1c-.1.9-.16,1.81-.23,2.72Z"/><path class="cls-2" d="M115.37,144.6h0Z"/><path class="cls-3" d="M76,136.68c0,.25-.09.5-.13.75l39.37-.5.43-.05Z"/><path class="cls-2" d="M115.67,136.88H118A13.23,13.23,0,0,0,115.67,136.88Z"/><path class="cls-3" d="M75.06,144.51c0,.45-.08.9-.1,1.35l13.93,2.75,26.46-4h0a5.87,5.87,0,0,1-1.07-.31,10.5,10.5,0,0,0-2.32-.25Z"/><rect class="cls-3" x="145.54" y="190.33" width="45.09" height="13.67" rx="6.83" ry="6.83"/><path class="cls-4" d="M125.83,81.75s13.59-7.54,15.92-.84c2.41,6.94-10.11,6.31-18,11.59s-12.64,11.06-16,8.1c-2.67-2.38-1.66-4.84,4.83-10.06A93.35,93.35,0,0,1,125.83,81.75Z"/><circle class="cls-4" cx="100.07" cy="105.92" r="2.35"/><path class="cls-5" d="M75.22,135.36l-9.27,2-4.64.94a30.2,30.2,0,0,0-4.47,1.15A19.34,19.34,0,0,0,49.2,144,9.43,9.43,0,0,0,47,147.49a3.5,3.5,0,0,0,.53,3.29,10.15,10.15,0,0,0,3.08,2.63,25,25,0,0,0,4,1.88A40.49,40.49,0,0,0,59,156.62c1.4.31,3,.59,4.53.87,6.17,1.08,12.38,2.12,18.59,3.09,12.34,1.72,24.87,2.94,37.36,3.64s25.05,1,37.58.89,25.08-.58,37.59-1.44,25-2,37.47-3.58c6.21-.79,12.44-1.7,18.53-2.84.75-.15,1.54-.3,2.2-.47s1.44-.41,2.15-.64a33.48,33.48,0,0,0,4.16-1.68,15.63,15.63,0,0,0,6.58-5.3,6.83,6.83,0,0,0,1.07-3.74,8.64,8.64,0,0,0-.09-1,5.28,5.28,0,0,0-.23-.89,4.43,4.43,0,0,0-1-1.56,9.28,9.28,0,0,0-3.62-2.12,24.64,24.64,0,0,0-4.41-1,35.65,35.65,0,0,0-4.62-.35l-4.72,0-9.46,0,9.41-.92,4.73-.42a37.06,37.06,0,0,1,4.83,0,23.93,23.93,0,0,1,4.84.78A11.37,11.37,0,0,1,267,140.3a7,7,0,0,1,1.69,2.27,7.61,7.61,0,0,1,.46,1.37,10.07,10.07,0,0,1,.2,1.34,9.54,9.54,0,0,1-1.13,5.32,14.28,14.28,0,0,1-3.37,4,25,25,0,0,1-4.17,2.85,37.28,37.28,0,0,1-4.5,2.08c-.78.31-1.52.58-2.34.83s-1.61.45-2.4.65c-6.24,1.5-12.46,2.57-18.72,3.63-12.49,2.1-25.09,3.48-37.71,4.6s-25.28,1.59-37.95,1.77c-12.68,0-25.36-.27-38-1.23-3.16-.26-6.32-.51-9.47-.84s-6.31-.66-9.46-1-6.29-.83-9.43-1.25-6.27-1-9.42-1.57c-6.2-1.22-12.4-2.42-18.58-3.85-1.56-.36-3.05-.7-4.7-1.15a42.19,42.19,0,0,1-4.64-1.7A28.12,28.12,0,0,1,49,156.07a12.42,12.42,0,0,1-3.83-3.72,6.73,6.73,0,0,1-1-2.81,6.41,6.41,0,0,1,.44-2.94,11.76,11.76,0,0,1,3-4.28,20.47,20.47,0,0,1,8.78-4.47,31.43,31.43,0,0,1,4.76-.83l4.69-.58Z"/><circle class="cls-6" cx="183.76" cy="141.29" r="7.17"/><circle class="cls-6" cx="127.61" cy="141.29" r="7.17"/><circle class="cls-7" cx="129.64" cy="139.52" r="2.03"/><circle class="cls-7" cx="185.5" cy="139.52" r="2.03"/><path class="cls-8" d="M149.93,151.12s5.66,9.13,11.31-.35"/></svg>