<svg id="Layer_1" data-name="Layer 1" xmlns="http://www.w3.org/2000/svg" viewBox="0 0 313.57 301"><defs><style>.cls-1{fill:#ffb0d9;}.cls-2{fill:#ff99d1;}.cls-3{fill:#ffcfea;}.cls-4{fill:#603913;}.cls-5{fill:none;stroke:#603913;stroke-miterlimit:10;stroke-width:2px;}.cls-6{fill:#fff;}</style></defs><title>Venus</title><circle class="cls-1" cx="156.78" cy="150.5" r="81.96"/><path class="cls-2" d="M206.88,85.63s-22.59,19-43.25,18.7-57.32,17.59-52.92,31.92,19.81.4,32.54-2.17,31.11-10.68,51.15-6.86,18.66,12.17,42.9,8.75C237.3,136,233,105.58,206.88,85.63Z"/><path class="cls-2" d="M82,183.64l4.11-1.57s57.23-19.06,97.1-15.32,4.55,18-6.61,19.64-24.7-.18-30.22,3.84-10.5,16.24-22.85,18.29-26.72-2.21-26.72-2.21S86.8,194.84,82,183.64Z"/><path class="cls-3" d="M127.1,94s5.85-3.16,2.75-7.32c-2.24-3-6-1.24-6.8-1s-19.67,6.8-22.69,18.86,6.23,10.29,9.32,7.81,5.73-10.29,9.72-13.72A24.44,24.44,0,0,1,127.1,94Z"/><circle class="cls-3" cx="92.5" cy="123.97" r="3.26"/><circle class="cls-4" cx="182.03" cy="146.1" r="7.17"/><path class="cls-5" d="M147.69,158s5.57,7.31,12.18,0"/><circle class="cls-4" cx="125.88" cy="146.1" r="7.17"/><circle class="cls-6" cx="123.85" cy="144.33" r="2.03"/><circle class="cls-6" cx="180" cy="144.07" r="2.03"/></svg>